<?xml version="1.0" encoding="UTF-8" standalone="no"?>
<!DOCTYPE svg PUBLIC "-//W3C//DTD SVG 1.0//EN"
 "http://www.w3.org/TR/2001/REC-SVG-20010904/DTD/svg10.dtd" [
 <!ATTLIST svg xmlns:xlink CDATA #FIXED "http://www.w3.org/1999/xlink">
]>
<!-- Generated by Graphviz version 2.20.2 (Tue Jul 29 16:40:41 UTC 2008)
     For user: (jjc) JJon -->
<!-- Title: testgraph Pages: 1 -->
<svg width="1133pt" height="318pt"
 viewBox="0.00 0.00 1133.00 318.00" xmlns="http://www.w3.org/2000/svg" xmlns:xlink="http://www.w3.org/1999/xlink">
<g id="graph0" class="graph" transform="scale(1 1) rotate(0) translate(4 314)">
<title>testgraph</title>
<polygon style="fill:white;stroke:white;" points="-4,4 -4,-314 1129,-314 1129,4 -4,4"/>
<!-- Brompton_Brian_de_1215&#45;1277 -->
<g id="node1" class="node"><title>Brompton_Brian_de_1215&#45;1277</title>
<polygon style="fill:none;stroke:black;" points="315,-310 143,-310 143,-288 315,-288 315,-310"/>
<text text-anchor="middle" x="229" y="-295.2" style="font-family:Times New Roman;font-size:12.00;">Brompton_Brian_de_1215&#45;1277</text>
</g>
<!-- Mortimer_Ralph_d_1247 -->
<g id="node3" class="node"><title>Mortimer_Ralph_d_1247</title>
<polygon style="fill:#99cccc;stroke:black;" points="226,-214 86,-214 86,-192 226,-192 226,-214"/>
<text text-anchor="middle" x="156" y="-199.2" style="font-family:Times New Roman;font-size:12.00;">Mortimer_Ralph_d_1247</text>
</g>
<!-- Brompton_Brian_de_1215&#45;1277&#45;&gt;Mortimer_Ralph_d_1247 -->
<g id="edge2" class="edge"><title>Brompton_Brian_de_1215&#45;1277&#45;&gt;Mortimer_Ralph_d_1247</title>
<path style="fill:none;stroke:black;" d="M216,-288C201,-272 176,-240 164,-220"/>
<polygon style="fill:black;stroke:black;" points="165.583,-218.21 160,-214 161.739,-220.773 165.583,-218.21"/>
<text text-anchor="middle" x="203" y="-270.4" style="font-family:Times New Roman;font-size:9.00;">serves</text>
</g>
<!-- Henry_de_Brompton -->
<g id="node5" class="node"><title>Henry_de_Brompton</title>
<polygon style="fill:red;stroke:black;" points="337,-118 219,-118 219,-96 337,-96 337,-118"/>
<text text-anchor="middle" x="278" y="-103.2" style="font-family:Times New Roman;font-size:12.00;">Henry_de_Brompton</text>
</g>
<!-- Brompton_Brian_de_1215&#45;1277&#45;&gt;Henry_de_Brompton -->
<g id="edge4" class="edge"><title>Brompton_Brian_de_1215&#45;1277&#45;&gt;Henry_de_Brompton</title>
<path style="fill:none;stroke:black;" d="M228,-288C232,-256 255,-163 270,-124"/>
<polygon style="fill:black;stroke:black;" points="272.104,-124.992 272,-118 267.721,-123.531 272.104,-124.992"/>
<text text-anchor="middle" x="231" y="-265.4" style="font-family:Times New Roman;font-size:9.00;">parentOf</text>
</g>
<!-- Mortimer_Ralph_d_1247&#45;&gt;Brompton_Brian_de_1215&#45;1277 -->
<g id="edge70" class="edge"><title>Mortimer_Ralph_d_1247&#45;&gt;Brompton_Brian_de_1215&#45;1277</title>
<path style="fill:none;stroke:black;" d="M169,-214C184,-231 209,-263 221,-282"/>
<polygon style="fill:black;stroke:black;" points="219.417,-283.79 225,-288 223.261,-281.227 219.417,-283.79"/>
<text text-anchor="middle" x="182" y="-226.4" style="font-family:Times New Roman;font-size:9.00;">lordOf</text>
</g>
<!-- Mortimer_Ralph_d_1247&#45;&gt;Henry_de_Brompton -->
<g id="edge107" class="edge"><title>Mortimer_Ralph_d_1247&#45;&gt;Henry_de_Brompton</title>
<path style="fill:none;stroke:black;" d="M170,-192C191,-175 234,-142 259,-122"/>
<polygon style="fill:black;stroke:black;" points="260.289,-123.927 264,-118 257.403,-120.319 260.289,-123.927"/>
<text text-anchor="middle" x="186" y="-176.4" style="font-family:Times New Roman;font-size:9.00;fill:#880000;">hostageGiver</text>
</g>
<!-- Mortimer_Roger_d_1214 -->
<g id="node20" class="node"><title>Mortimer_Roger_d_1214</title>
<polygon style="fill:none;stroke:black;" points="140,-22 7.10543e-14,-22 0,-1.06581e-14 140,-3.55271e-15 140,-22"/>
<text text-anchor="middle" x="70" y="-7.2" style="font-family:Times New Roman;font-size:12.00;">Mortimer_Roger_d_1214</text>
</g>
<!-- Mortimer_Ralph_d_1247&#45;&gt;Mortimer_Roger_d_1214 -->
<g id="edge68" class="edge"><title>Mortimer_Ralph_d_1247&#45;&gt;Mortimer_Roger_d_1214</title>
<path style="fill:none;stroke:black;" d="M132,-192C109,-178 75,-151 61,-118 49,-88 53,-50 60,-28"/>
<polygon style="fill:black;stroke:black;" points="62.1043,-28.9918 62,-22 57.7214,-27.5308 62.1043,-28.9918"/>
<text text-anchor="middle" x="115" y="-178.4" style="font-family:Times New Roman;font-size:9.00;">childOf</text>
</g>
<!-- Ferrières_Isabella_de -->
<g id="node22" class="node"><title>Ferrières_Isabella_de</title>
<polygon style="fill:none;stroke:black;" points="201,-118 79,-118 79,-96 201,-96 201,-118"/>
<text text-anchor="middle" x="140" y="-103.2" style="font-family:Times New Roman;font-size:12.00;">Ferrières_Isabella_de</text>
</g>
<!-- Mortimer_Ralph_d_1247&#45;&gt;Ferrières_Isabella_de -->
<g id="edge66" class="edge"><title>Mortimer_Ralph_d_1247&#45;&gt;Ferrières_Isabella_de</title>
<path style="fill:none;stroke:black;" d="M154,-192C151,-176 146,-145 143,-125"/>
<polygon style="fill:black;stroke:black;" points="145.22,-124.207 142,-118 140.647,-124.86 145.22,-124.207"/>
<text text-anchor="middle" x="150" y="-169.4" style="font-family:Times New Roman;font-size:9.00;">childOf</text>
</g>
<!-- Henry_de_Brompton&#45;&gt;Brompton_Brian_de_1215&#45;1277 -->
<g id="edge14" class="edge"><title>Henry_de_Brompton&#45;&gt;Brompton_Brian_de_1215&#45;1277</title>
<path style="fill:none;stroke:black;" d="M279,-118C275,-150 251,-242 237,-281"/>
<polygon style="fill:black;stroke:black;" points="234.592,-281.019 235,-288 239.034,-282.289 234.592,-281.019"/>
<text text-anchor="middle" x="276" y="-135.4" style="font-family:Times New Roman;font-size:9.00;">childOf</text>
</g>
<!-- Thomas_earl_of_Warwick_d_1242 -->
<g id="node19" class="node"><title>Thomas_earl_of_Warwick_d_1242</title>
<polygon style="fill:#99cccc;stroke:black;" points="931,-214 743,-214 743,-192 931,-192 931,-214"/>
<text text-anchor="middle" x="837" y="-199.2" style="font-family:Times New Roman;font-size:12.00;">Thomas_earl_of_Warwick_d_1242</text>
</g>
<!-- Warwick_Castle -->
<g id="node127" class="node"><title>Warwick_Castle</title>
<polygon style="fill:red;stroke:black;" points="886,-118 788,-118 788,-96 886,-96 886,-118"/>
<text text-anchor="middle" x="837" y="-103.2" style="font-family:Times New Roman;font-size:12.00;">Warwick_Castle</text>
</g>
<!-- Thomas_earl_of_Warwick_d_1242&#45;&gt;Warwick_Castle -->
<g id="edge135" class="edge"><title>Thomas_earl_of_Warwick_d_1242&#45;&gt;Warwick_Castle</title>
<path style="fill:none;stroke:black;" d="M837,-192C837,-176 837,-145 837,-125"/>
<polygon style="fill:black;stroke:black;" points="839.31,-124.6 837,-118 834.69,-124.6 839.31,-124.6"/>
<text text-anchor="middle" x="837" y="-169.4" style="font-family:Times New Roman;font-size:9.00;fill:#880000;">pledgeGiver</text>
</g>
<!-- Mortimer_Roger_d_1214&#45;&gt;Mortimer_Ralph_d_1247 -->
<g id="edge22" class="edge"><title>Mortimer_Roger_d_1214&#45;&gt;Mortimer_Ralph_d_1247</title>
<path style="fill:none;stroke:black;" d="M73,-22C72,-42 66,-85 79,-118 92,-148 121,-173 140,-188"/>
<polygon style="fill:black;stroke:black;" points="138.403,-189.681 145,-192 141.289,-186.073 138.403,-189.681"/>
<text text-anchor="middle" x="72" y="-39.4" style="font-family:Times New Roman;font-size:9.00;">parentOf</text>
</g>
<!-- Mortimer_Roger_d_1214&#45;&gt;Ferrières_Isabella_de -->
<g id="edge20" class="edge"><title>Mortimer_Roger_d_1214&#45;&gt;Ferrières_Isabella_de</title>
<path style="fill:none;stroke:black;" d="M83,-22C97,-39 121,-71 133,-90"/>
<polygon style="fill:black;stroke:black;" points="130.982,-91.1299 136,-96 135.114,-89.0637 130.982,-91.1299"/>
<text text-anchor="middle" x="96" y="-35.4" style="font-family:Times New Roman;font-size:9.00;">spouseOf</text>
</g>
<!-- Ferrières_Isabella_de&#45;&gt;Mortimer_Roger_d_1214 -->
<g id="edge127" class="edge"><title>Ferrières_Isabella_de&#45;&gt;Mortimer_Roger_d_1214</title>
<path style="fill:none;stroke:black;" d="M127,-96C113,-80 89,-48 77,-28"/>
<polygon style="fill:black;stroke:black;" points="79.0178,-26.8701 74,-22 74.8855,-28.9363 79.0178,-26.8701"/>
<text text-anchor="middle" x="114" y="-78.4" style="font-family:Times New Roman;font-size:9.00;">spouseOf</text>
</g>
<!-- John_de_Lodbroc -->
<g id="node28" class="node"><title>John_de_Lodbroc</title>
<polygon style="fill:#99cccc;stroke:black;" points="725,-214 621,-214 621,-192 725,-192 725,-214"/>
<text text-anchor="middle" x="673" y="-199.2" style="font-family:Times New Roman;font-size:12.00;">John_de_Lodbroc</text>
</g>
<!-- Philip_fitz_William_Sampson -->
<g id="node38" class="node"><title>Philip_fitz_William_Sampson</title>
<polygon style="fill:red;stroke:black;" points="692,-118 530,-118 530,-96 692,-96 692,-118"/>
<text text-anchor="middle" x="611" y="-103.2" style="font-family:Times New Roman;font-size:12.00;">Philip_fitz_William_Sampson</text>
</g>
<!-- John_de_Lodbroc&#45;&gt;Philip_fitz_William_Sampson -->
<g id="edge161" class="edge"><title>John_de_Lodbroc&#45;&gt;Philip_fitz_William_Sampson</title>
<path style="fill:none;stroke:black;" d="M666,-192C655,-176 634,-144 622,-124"/>
<polygon style="fill:black;stroke:black;" points="623.583,-122.21 618,-118 619.739,-124.773 623.583,-122.21"/>
<text text-anchor="middle" x="655" y="-172.4" style="font-family:Times New Roman;font-size:9.00;fill:#880000;">hostageGiver</text>
</g>
<!-- John_de_Lodbroc&#45;&gt;Warwick_Castle -->
<g id="edge133" class="edge"><title>John_de_Lodbroc&#45;&gt;Warwick_Castle</title>
<path style="fill:none;stroke:black;" d="M692,-192C721,-175 780,-141 812,-122"/>
<polygon style="fill:black;stroke:black;" points="813.79,-123.583 818,-118 811.227,-119.739 813.79,-123.583"/>
<text text-anchor="middle" x="709" y="-179.4" style="font-family:Times New Roman;font-size:9.00;fill:#088000;">custodyHolder</text>
</g>
<!-- William_de_Stutevill -->
<g id="node29" class="node"><title>William_de_Stutevill</title>
<polygon style="fill:#99cccc;stroke:black;" points="441,-214 321,-214 321,-192 441,-192 441,-214"/>
<text text-anchor="middle" x="381" y="-199.2" style="font-family:Times New Roman;font-size:12.00;">William_de_Stutevill</text>
</g>
<!-- William_de_Stutevill&#45;&gt;Henry_de_Brompton -->
<g id="edge109" class="edge"><title>William_de_Stutevill&#45;&gt;Henry_de_Brompton</title>
<path style="fill:none;stroke:black;" d="M369,-192C351,-175 316,-143 295,-123"/>
<polygon style="fill:black;stroke:black;" points="296.3,-121.034 290,-118 293.034,-124.3 296.3,-121.034"/>
<text text-anchor="middle" x="354" y="-175.4" style="font-family:Times New Roman;font-size:9.00;fill:#088000;">hostageHolder</text>
</g>
<!-- Stutevill_Osmund_de -->
<g id="node31" class="node"><title>Stutevill_Osmund_de</title>
<polygon style="fill:red;stroke:black;" points="477,-118 355,-118 355,-96 477,-96 477,-118"/>
<text text-anchor="middle" x="416" y="-103.2" style="font-family:Times New Roman;font-size:12.00;">Stutevill_Osmund_de</text>
</g>
<!-- William_de_Stutevill&#45;&gt;Stutevill_Osmund_de -->
<g id="edge28" class="edge"><title>William_de_Stutevill&#45;&gt;Stutevill_Osmund_de</title>
<path style="fill:none;stroke:black;" d="M381,-192C385,-176 396,-144 405,-124"/>
<polygon style="fill:black;stroke:black;" points="407.114,-124.936 408,-118 402.982,-122.87 407.114,-124.936"/>
<text text-anchor="middle" x="386" y="-170.4" style="font-family:Times New Roman;font-size:9.00;">parentOf</text>
</g>
<!-- Stutevill_Osmund_de&#45;&gt;William_de_Stutevill -->
<g id="edge61" class="edge"><title>Stutevill_Osmund_de&#45;&gt;William_de_Stutevill</title>
<path style="fill:none;stroke:black;" d="M416,-118C413,-135 402,-167 393,-186"/>
<polygon style="fill:black;stroke:black;" points="390.886,-185.064 390,-192 395.018,-187.13 390.886,-185.064"/>
<text text-anchor="middle" x="412" y="-135.4" style="font-family:Times New Roman;font-size:9.00;">childOf</text>
</g>
<!-- Segrave_Stephen_d_1241 -->
<g id="node37" class="node"><title>Segrave_Stephen_d_1241</title>
<polygon style="fill:#99cccc;stroke:black;" points="603,-214 459,-214 459,-192 603,-192 603,-214"/>
<text text-anchor="middle" x="531" y="-199.2" style="font-family:Times New Roman;font-size:12.00;">Segrave_Stephen_d_1241</text>
</g>
<!-- Segrave_Stephen_d_1241&#45;&gt;Stutevill_Osmund_de -->
<g id="edge91" class="edge"><title>Segrave_Stephen_d_1241&#45;&gt;Stutevill_Osmund_de</title>
<path style="fill:none;stroke:black;" d="M518,-192C498,-175 458,-142 434,-122"/>
<polygon style="fill:black;stroke:black;" points="435.597,-120.319 429,-118 432.711,-123.927 435.597,-120.319"/>
<text text-anchor="middle" x="503" y="-176.4" style="font-family:Times New Roman;font-size:9.00;fill:#088000;">hostageHolder</text>
</g>
<!-- Segrave_Stephen_d_1241&#45;&gt;Philip_fitz_William_Sampson -->
<g id="edge163" class="edge"><title>Segrave_Stephen_d_1241&#45;&gt;Philip_fitz_William_Sampson</title>
<path style="fill:none;stroke:black;" d="M540,-192C554,-176 581,-143 598,-123"/>
<polygon style="fill:black;stroke:black;" points="599.681,-124.597 602,-118 596.073,-121.711 599.681,-124.597"/>
<text text-anchor="middle" x="553" y="-174.4" style="font-family:Times New Roman;font-size:9.00;fill:#088000;">hostageHolder</text>
</g>
<!-- Sampson_William -->
<g id="node40" class="node"><title>Sampson_William</title>
<polygon style="fill:none;stroke:black;" points="663,-22 559,-22 559,-1.06581e-14 663,-3.55271e-15 663,-22"/>
<text text-anchor="middle" x="611" y="-7.2" style="font-family:Times New Roman;font-size:12.00;">Sampson_William</text>
</g>
<!-- Philip_fitz_William_Sampson&#45;&gt;Sampson_William -->
<g id="edge35" class="edge"><title>Philip_fitz_William_Sampson&#45;&gt;Sampson_William</title>
<path style="fill:none;stroke:black;" d="M607,-96C603,-80 603,-49 605,-29"/>
<polygon style="fill:black;stroke:black;" points="607.353,-28.8604 606,-22 602.78,-28.207 607.353,-28.8604"/>
<text text-anchor="middle" x="603" y="-73.4" style="font-family:Times New Roman;font-size:9.00;">childOf</text>
</g>
<!-- Sampson_William&#45;&gt;Philip_fitz_William_Sampson -->
<g id="edge40" class="edge"><title>Sampson_William&#45;&gt;Philip_fitz_William_Sampson</title>
<path style="fill:none;stroke:black;" d="M616,-22C619,-39 619,-70 616,-89"/>
<polygon style="fill:black;stroke:black;" points="613.647,-89.1396 615,-96 618.22,-89.793 613.647,-89.1396"/>
<text text-anchor="middle" x="619" y="-39.4" style="font-family:Times New Roman;font-size:9.00;">parentOf</text>
</g>
<!-- A_son_of_John_Durvassal -->
<g id="node48" class="node"><title>A_son_of_John_Durvassal</title>
<polygon style="fill:red;stroke:black;" points="1071,-118 923,-118 923,-96 1071,-96 1071,-118"/>
<text text-anchor="middle" x="997" y="-103.2" style="font-family:Times New Roman;font-size:12.00;">A_son_of_John_Durvassal</text>
</g>
<!-- John_Durvassal -->
<g id="node49" class="node"><title>John_Durvassal</title>
<polygon style="fill:#99cccc;stroke:black;" points="1045,-214 949,-214 949,-192 1045,-192 1045,-214"/>
<text text-anchor="middle" x="997" y="-199.2" style="font-family:Times New Roman;font-size:12.00;">John_Durvassal</text>
</g>
<!-- A_son_of_John_Durvassal&#45;&gt;John_Durvassal -->
<g id="edge177" class="edge"><title>A_son_of_John_Durvassal&#45;&gt;John_Durvassal</title>
<path style="fill:none;stroke:black;" d="M1002,-118C1005,-135 1005,-166 1002,-185"/>
<polygon style="fill:black;stroke:black;" points="999.647,-185.14 1001,-192 1004.22,-185.793 999.647,-185.14"/>
<text text-anchor="middle" x="1005" y="-135.4" style="font-family:Times New Roman;font-size:9.00;">childOf</text>
</g>
<!-- John_Durvassal&#45;&gt;A_son_of_John_Durvassal -->
<g id="edge45" class="edge"><title>John_Durvassal&#45;&gt;A_son_of_John_Durvassal</title>
<path style="fill:none;stroke:black;" d="M993,-192C989,-176 989,-145 991,-125"/>
<polygon style="fill:black;stroke:black;" points="993.353,-124.86 992,-118 988.78,-124.207 993.353,-124.86"/>
<text text-anchor="middle" x="989" y="-169.4" style="font-family:Times New Roman;font-size:9.00;fill:#880000;">hostageGiver</text>
</g>
<!-- John_Durvassal&#45;&gt;Warwick_Castle -->
<g id="edge131" class="edge"><title>John_Durvassal&#45;&gt;Warwick_Castle</title>
<path style="fill:none;stroke:black;" d="M979,-192C950,-175 894,-141 862,-122"/>
<polygon style="fill:black;stroke:black;" points="862.773,-119.739 856,-118 860.21,-123.583 862.773,-119.739"/>
<text text-anchor="middle" x="962" y="-179.4" style="font-family:Times New Roman;font-size:9.00;fill:#088000;">custodyHolder</text>
</g>
<!-- Henry_III -->
<g id="node50" class="node"><title>Henry_III</title>
<polygon style="fill:#99cccc;stroke:black;" points="1125,-214 1063,-214 1063,-192 1125,-192 1125,-214"/>
<text text-anchor="middle" x="1094" y="-199.2" style="font-family:Times New Roman;font-size:12.00;">Henry_III</text>
</g>
<!-- Henry_III&#45;&gt;A_son_of_John_Durvassal -->
<g id="edge47" class="edge"><title>Henry_III&#45;&gt;A_son_of_John_Durvassal</title>
<path style="fill:none;stroke:black;" d="M1083,-192C1065,-175 1033,-143 1013,-123"/>
<polygon style="fill:black;stroke:black;" points="1014.3,-121.034 1008,-118 1011.03,-124.3 1014.3,-121.034"/>
<text text-anchor="middle" x="1069" y="-175.4" style="font-family:Times New Roman;font-size:9.00;fill:#088000;">hostageHolder</text>
</g>
</g>
</svg>
