<?xml version="1.0" encoding="UTF-8" standalone="no"?>
<!DOCTYPE svg PUBLIC "-//W3C//DTD SVG 1.0//EN"
 "http://www.w3.org/TR/2001/REC-SVG-20010904/DTD/svg10.dtd" [
 <!ATTLIST svg xmlns:xlink CDATA #FIXED "http://www.w3.org/1999/xlink">
]>
<!-- Generated by Graphviz version 2.20.2 (Tue Jul 29 16:40:41 UTC 2008)
     For user: (jjc) JJon -->
<!-- Title: testgraph Pages: 1 -->
<svg width="1155pt" height="404pt"
 viewBox="0.00 0.00 1155.00 404.00" xmlns="http://www.w3.org/2000/svg" xmlns:xlink="http://www.w3.org/1999/xlink">
<g id="graph0" class="graph" transform="scale(1 1) rotate(0) translate(4 400)">
<title>testgraph</title>
<polygon style="fill:white;stroke:white;" points="-4,4 -4,-400 1151,-400 1151,4 -4,4"/>
<!-- Ferrières_Isabella_de -->
<g id="node1" class="node"><title>Ferrières_Isabella_de</title>
<polygon style="fill:none;stroke:black;" points="188,-396 50,-396 50,-360 188,-360 188,-396"/>
<text text-anchor="middle" x="119" y="-373.9" style="font-family:Times New Roman;font-size:14.00;">Ferrières_Isabella_de</text>
</g>
<!-- Mortimer_Roger_d_1214 -->
<g id="node3" class="node"><title>Mortimer_Roger_d_1214</title>
<polygon style="fill:none;stroke:black;" points="202,-324 36,-324 36,-288 202,-288 202,-324"/>
<text text-anchor="middle" x="119" y="-301.9" style="font-family:Times New Roman;font-size:14.00;">Mortimer_Roger_d_1214</text>
</g>
<!-- Ferrières_Isabella_de&#45;&gt;Mortimer_Roger_d_1214 -->
<g id="edge2" class="edge"><title>Ferrières_Isabella_de&#45;&gt;Mortimer_Roger_d_1214</title>
<path style="fill:none;stroke:black;" d="M113,-360C112,-352 112,-343 112,-334"/>
<polygon style="fill:black;stroke:black;" points="115.488,-334.299 113,-324 108.522,-333.602 115.488,-334.299"/>
<text text-anchor="middle" x="108" y="-348.4" style="font-family:Times New Roman;font-size:9.00;">spouseOf</text>
</g>
<!-- Mortimer_Roger_d_1214&#45;&gt;Ferrières_Isabella_de -->
<g id="edge94" class="edge"><title>Mortimer_Roger_d_1214&#45;&gt;Ferrières_Isabella_de</title>
<path style="fill:none;stroke:black;" d="M125,-324C126,-332 126,-341 126,-350"/>
<polygon style="fill:black;stroke:black;" points="122.512,-349.701 125,-360 129.478,-350.398 122.512,-349.701"/>
<text text-anchor="middle" x="130" y="-330.4" style="font-family:Times New Roman;font-size:9.00;">spouseOf</text>
</g>
<!-- Mortimer_Ralph_d_1247 -->
<g id="node6" class="node"><title>Mortimer_Ralph_d_1247</title>
<polygon style="fill:#cc99cc;stroke:black;" points="200,-252 38,-252 38,-216 200,-216 200,-252"/>
<text text-anchor="middle" x="119" y="-229.9" style="font-family:Times New Roman;font-size:14.00;">Mortimer_Ralph_d_1247</text>
</g>
<!-- Mortimer_Roger_d_1214&#45;&gt;Mortimer_Ralph_d_1247 -->
<g id="edge96" class="edge"><title>Mortimer_Roger_d_1214&#45;&gt;Mortimer_Ralph_d_1247</title>
<path style="fill:none;stroke:black;" d="M113,-288C112,-280 112,-271 112,-262"/>
<polygon style="fill:black;stroke:black;" points="115.488,-262.299 113,-252 108.522,-261.602 115.488,-262.299"/>
<text text-anchor="middle" x="108" y="-276.4" style="font-family:Times New Roman;font-size:9.00;">parentOf</text>
</g>
<!-- Mortimer_Ralph_d_1247&#45;&gt;Ferrières_Isabella_de -->
<g id="edge159" class="edge"><title>Mortimer_Ralph_d_1247&#45;&gt;Ferrières_Isabella_de</title>
<path style="fill:none;stroke:black;" d="M171,-252C187,-260 202,-272 211,-288 219,-301 219,-310 211,-324 204,-337 192,-347 179,-355"/>
<polygon style="fill:black;stroke:black;" points="177.042,-352.084 170,-360 180.441,-358.203 177.042,-352.084"/>
<text text-anchor="middle" x="181" y="-250.4" style="font-family:Times New Roman;font-size:9.00;">childOf</text>
</g>
<!-- Mortimer_Ralph_d_1247&#45;&gt;Mortimer_Roger_d_1214 -->
<g id="edge157" class="edge"><title>Mortimer_Ralph_d_1247&#45;&gt;Mortimer_Roger_d_1214</title>
<path style="fill:none;stroke:black;" d="M125,-252C126,-260 126,-269 126,-278"/>
<polygon style="fill:black;stroke:black;" points="122.512,-277.701 125,-288 129.478,-278.398 122.512,-277.701"/>
<text text-anchor="middle" x="130" y="-258.4" style="font-family:Times New Roman;font-size:9.00;">childOf</text>
</g>
<!-- Henry_de_Brompton -->
<g id="node7" class="node"><title>Henry_de_Brompton</title>
<polygon style="fill:red;stroke:black;" points="188,-108 50,-108 50,-72 188,-72 188,-108"/>
<text text-anchor="middle" x="119" y="-85.9" style="font-family:Times New Roman;font-size:14.00;">Henry_de_Brompton</text>
</g>
<!-- Mortimer_Ralph_d_1247&#45;&gt;Henry_de_Brompton -->
<g id="edge6" class="edge"><title>Mortimer_Ralph_d_1247&#45;&gt;Henry_de_Brompton</title>
<path style="fill:none;stroke:black;" d="M53,-216C36,-208 19,-196 8,-180 0,-166 0,-157 8,-144 16,-131 29,-120 43,-113"/>
<polygon style="fill:black;stroke:black;" points="44.9582,-115.916 52,-108 41.5586,-109.797 44.9582,-115.916"/>
<text text-anchor="middle" x="43" y="-213.4" style="font-family:Times New Roman;font-size:9.00;">hostageGiver</text>
</g>
<!-- Brompton_Brian_de_1215&#45;1277 -->
<g id="node52" class="node"><title>Brompton_Brian_de_1215&#45;1277</title>
<polygon style="fill:none;stroke:black;" points="221,-180 17,-180 17,-144 221,-144 221,-180"/>
<text text-anchor="middle" x="119" y="-157.9" style="font-family:Times New Roman;font-size:14.00;">Brompton_Brian_de_1215&#45;1277</text>
</g>
<!-- Mortimer_Ralph_d_1247&#45;&gt;Brompton_Brian_de_1215&#45;1277 -->
<g id="edge161" class="edge"><title>Mortimer_Ralph_d_1247&#45;&gt;Brompton_Brian_de_1215&#45;1277</title>
<path style="fill:none;stroke:black;" d="M113,-216C112,-208 112,-199 112,-190"/>
<polygon style="fill:black;stroke:black;" points="115.488,-190.299 113,-180 108.522,-189.602 115.488,-190.299"/>
<text text-anchor="middle" x="108" y="-204.4" style="font-family:Times New Roman;font-size:9.00;">lordOf</text>
</g>
<!-- Henry_de_Brompton&#45;&gt;Brompton_Brian_de_1215&#45;1277 -->
<g id="edge49" class="edge"><title>Henry_de_Brompton&#45;&gt;Brompton_Brian_de_1215&#45;1277</title>
<path style="fill:none;stroke:black;" d="M125,-108C126,-116 126,-125 126,-134"/>
<polygon style="fill:black;stroke:black;" points="122.512,-133.701 125,-144 129.478,-134.398 122.512,-133.701"/>
<text text-anchor="middle" x="130" y="-114.4" style="font-family:Times New Roman;font-size:9.00;">childOf</text>
</g>
<!-- William_de_Stutevill -->
<g id="node8" class="node"><title>William_de_Stutevill</title>
<polygon style="fill:#99cccc;stroke:black;" points="373,-180 239,-180 239,-144 373,-144 373,-180"/>
<text text-anchor="middle" x="306" y="-157.9" style="font-family:Times New Roman;font-size:14.00;">William_de_Stutevill</text>
</g>
<!-- William_de_Stutevill&#45;&gt;Henry_de_Brompton -->
<g id="edge8" class="edge"><title>William_de_Stutevill&#45;&gt;Henry_de_Brompton</title>
<path style="fill:none;stroke:black;" d="M259,-144C233,-134 202,-122 174,-112"/>
<polygon style="fill:black;stroke:black;" points="175.56,-108.863 165,-108 172.717,-115.26 175.56,-108.863"/>
<text text-anchor="middle" x="249" y="-142.4" style="font-family:Times New Roman;font-size:9.00;">hostageHolder</text>
</g>
<!-- Stutevill_Osmund_de -->
<g id="node27" class="node"><title>Stutevill_Osmund_de</title>
<polygon style="fill:red;stroke:black;" points="375,-108 237,-108 237,-72 375,-72 375,-108"/>
<text text-anchor="middle" x="306" y="-85.9" style="font-family:Times New Roman;font-size:14.00;">Stutevill_Osmund_de</text>
</g>
<!-- William_de_Stutevill&#45;&gt;Stutevill_Osmund_de -->
<g id="edge26" class="edge"><title>William_de_Stutevill&#45;&gt;Stutevill_Osmund_de</title>
<path style="fill:none;stroke:black;" d="M300,-144C299,-136 299,-127 299,-118"/>
<polygon style="fill:black;stroke:black;" points="302.488,-118.299 300,-108 295.522,-117.602 302.488,-118.299"/>
<text text-anchor="middle" x="295" y="-132.4" style="font-family:Times New Roman;font-size:9.00;">hostageGiver</text>
</g>
<!-- Stutevill_Osmund_de&#45;&gt;William_de_Stutevill -->
<g id="edge122" class="edge"><title>Stutevill_Osmund_de&#45;&gt;William_de_Stutevill</title>
<path style="fill:none;stroke:black;" d="M312,-108C313,-116 313,-125 313,-134"/>
<polygon style="fill:black;stroke:black;" points="309.512,-133.701 312,-144 316.478,-134.398 309.512,-133.701"/>
<text text-anchor="middle" x="317" y="-114.4" style="font-family:Times New Roman;font-size:9.00;">childOf</text>
</g>
<!-- Segrave_Stephen_d_1241 -->
<g id="node28" class="node"><title>Segrave_Stephen_d_1241</title>
<polygon style="fill:#99cccc;stroke:black;" points="557,-180 391,-180 391,-144 557,-144 557,-180"/>
<text text-anchor="middle" x="474" y="-157.9" style="font-family:Times New Roman;font-size:14.00;">Segrave_Stephen_d_1241</text>
</g>
<!-- Segrave_Stephen_d_1241&#45;&gt;Stutevill_Osmund_de -->
<g id="edge28" class="edge"><title>Segrave_Stephen_d_1241&#45;&gt;Stutevill_Osmund_de</title>
<path style="fill:none;stroke:black;" d="M432,-144C409,-134 381,-122 357,-112"/>
<polygon style="fill:black;stroke:black;" points="358.56,-108.863 348,-108 355.717,-115.26 358.56,-108.863"/>
<text text-anchor="middle" x="422" y="-141.4" style="font-family:Times New Roman;font-size:9.00;">hostageHolder</text>
</g>
<!-- Philip_fitz_William_Sampson -->
<g id="node47" class="node"><title>Philip_fitz_William_Sampson</title>
<polygon style="fill:red;stroke:black;" points="653,-108 469,-108 469,-72 653,-72 653,-108"/>
<text text-anchor="middle" x="561" y="-85.9" style="font-family:Times New Roman;font-size:14.00;">Philip_fitz_William_Sampson</text>
</g>
<!-- Segrave_Stephen_d_1241&#45;&gt;Philip_fitz_William_Sampson -->
<g id="edge80" class="edge"><title>Segrave_Stephen_d_1241&#45;&gt;Philip_fitz_William_Sampson</title>
<path style="fill:none;stroke:black;" d="M496,-144C507,-135 520,-124 531,-114"/>
<polygon style="fill:black;stroke:black;" points="533.1,-116.8 539,-108 528.9,-111.2 533.1,-116.8"/>
<text text-anchor="middle" x="500" y="-132.4" style="font-family:Times New Roman;font-size:9.00;">hostageHolder</text>
</g>
<!-- Sampson_William -->
<g id="node45" class="node"><title>Sampson_William</title>
<polygon style="fill:none;stroke:black;" points="621,-36 501,-36 501,-1.77636e-14 621,-3.55271e-15 621,-36"/>
<text text-anchor="middle" x="561" y="-13.9" style="font-family:Times New Roman;font-size:14.00;">Sampson_William</text>
</g>
<!-- Sampson_William&#45;&gt;Philip_fitz_William_Sampson -->
<g id="edge44" class="edge"><title>Sampson_William&#45;&gt;Philip_fitz_William_Sampson</title>
<path style="fill:none;stroke:black;" d="M567,-36C568,-44 568,-53 568,-62"/>
<polygon style="fill:black;stroke:black;" points="564.512,-61.7013 567,-72 571.478,-62.3979 564.512,-61.7013"/>
<text text-anchor="middle" x="572" y="-42.4" style="font-family:Times New Roman;font-size:9.00;">parentOf</text>
</g>
<!-- Philip_fitz_William_Sampson&#45;&gt;Sampson_William -->
<g id="edge67" class="edge"><title>Philip_fitz_William_Sampson&#45;&gt;Sampson_William</title>
<path style="fill:none;stroke:black;" d="M555,-72C554,-64 554,-55 554,-46"/>
<polygon style="fill:black;stroke:black;" points="557.488,-46.2987 555,-36 550.522,-45.6021 557.488,-46.2987"/>
<text text-anchor="middle" x="550" y="-60.4" style="font-family:Times New Roman;font-size:9.00;">childOf</text>
</g>
<!-- Brompton_Brian_de_1215&#45;1277&#45;&gt;Mortimer_Ralph_d_1247 -->
<g id="edge55" class="edge"><title>Brompton_Brian_de_1215&#45;1277&#45;&gt;Mortimer_Ralph_d_1247</title>
<path style="fill:none;stroke:black;" d="M125,-180C126,-188 126,-197 126,-206"/>
<polygon style="fill:black;stroke:black;" points="122.512,-205.701 125,-216 129.478,-206.398 122.512,-205.701"/>
<text text-anchor="middle" x="130" y="-186.4" style="font-family:Times New Roman;font-size:9.00;">serves</text>
</g>
<!-- Brompton_Brian_de_1215&#45;1277&#45;&gt;Henry_de_Brompton -->
<g id="edge57" class="edge"><title>Brompton_Brian_de_1215&#45;1277&#45;&gt;Henry_de_Brompton</title>
<path style="fill:none;stroke:black;" d="M113,-144C112,-136 112,-127 112,-118"/>
<polygon style="fill:black;stroke:black;" points="115.488,-118.299 113,-108 108.522,-117.602 115.488,-118.299"/>
<text text-anchor="middle" x="108" y="-132.4" style="font-family:Times New Roman;font-size:9.00;">parentOf</text>
</g>
<!-- John_Durvassal -->
<g id="node67" class="node"><title>John_Durvassal</title>
<polygon style="fill:#99cccc;stroke:black;" points="1057,-180 951,-180 951,-144 1057,-144 1057,-180"/>
<text text-anchor="middle" x="1004" y="-157.9" style="font-family:Times New Roman;font-size:14.00;">John_Durvassal</text>
</g>
<!-- A_son_of_John_Durvassal -->
<g id="node100" class="node"><title>A_son_of_John_Durvassal</title>
<polygon style="fill:red;stroke:black;" points="1088,-108 920,-108 920,-72 1088,-72 1088,-108"/>
<text text-anchor="middle" x="1004" y="-85.9" style="font-family:Times New Roman;font-size:14.00;">A_son_of_John_Durvassal</text>
</g>
<!-- John_Durvassal&#45;&gt;A_son_of_John_Durvassal -->
<g id="edge102" class="edge"><title>John_Durvassal&#45;&gt;A_son_of_John_Durvassal</title>
<path style="fill:none;stroke:black;" d="M998,-144C997,-136 997,-127 997,-118"/>
<polygon style="fill:black;stroke:black;" points="1000.49,-118.299 998,-108 993.522,-117.602 1000.49,-118.299"/>
<text text-anchor="middle" x="993" y="-132.4" style="font-family:Times New Roman;font-size:9.00;">hostageGiver</text>
</g>
<!-- Warwick_Castle -->
<g id="node123" class="node"><title>Warwick_Castle</title>
<polygon style="fill:red;stroke:black;" points="879,-108 769,-108 769,-72 879,-72 879,-108"/>
<text text-anchor="middle" x="824" y="-85.9" style="font-family:Times New Roman;font-size:14.00;">Warwick_Castle</text>
</g>
<!-- John_Durvassal&#45;&gt;Warwick_Castle -->
<g id="edge131" class="edge"><title>John_Durvassal&#45;&gt;Warwick_Castle</title>
<path style="fill:none;stroke:black;" d="M959,-144C934,-134 904,-122 878,-112"/>
<polygon style="fill:black;stroke:black;" points="879.56,-108.863 869,-108 876.717,-115.26 879.56,-108.863"/>
<text text-anchor="middle" x="949" y="-142.4" style="font-family:Times New Roman;font-size:9.00;">custodyHolder</text>
</g>
<!-- John_de_Lodbroc -->
<g id="node78" class="node"><title>John_de_Lodbroc</title>
<polygon style="fill:#cc99cc;stroke:black;" points="697,-180 575,-180 575,-144 697,-144 697,-180"/>
<text text-anchor="middle" x="636" y="-157.9" style="font-family:Times New Roman;font-size:14.00;">John_de_Lodbroc</text>
</g>
<!-- John_de_Lodbroc&#45;&gt;Philip_fitz_William_Sampson -->
<g id="edge78" class="edge"><title>John_de_Lodbroc&#45;&gt;Philip_fitz_William_Sampson</title>
<path style="fill:none;stroke:black;" d="M617,-144C608,-135 597,-125 587,-115"/>
<polygon style="fill:black;stroke:black;" points="589.546,-112.596 580,-108 584.596,-117.546 589.546,-112.596"/>
<text text-anchor="middle" x="608" y="-138.4" style="font-family:Times New Roman;font-size:9.00;">hostageGiver</text>
</g>
<!-- John_de_Lodbroc&#45;&gt;Warwick_Castle -->
<g id="edge129" class="edge"><title>John_de_Lodbroc&#45;&gt;Warwick_Castle</title>
<path style="fill:none;stroke:black;" d="M683,-144C709,-134 740,-122 768,-112"/>
<polygon style="fill:black;stroke:black;" points="769.283,-115.26 777,-108 766.44,-108.863 769.283,-115.26"/>
<text text-anchor="middle" x="690" y="-134.4" style="font-family:Times New Roman;font-size:9.00;">custodyHolder</text>
</g>
<!-- Henry_III -->
<g id="node93" class="node"><title>Henry_III</title>
<polygon style="fill:#99cccc;stroke:black;" points="1147,-180 1075,-180 1075,-144 1147,-144 1147,-180"/>
<text text-anchor="middle" x="1111" y="-157.9" style="font-family:Times New Roman;font-size:14.00;">Henry_III</text>
</g>
<!-- Henry_III&#45;&gt;A_son_of_John_Durvassal -->
<g id="edge104" class="edge"><title>Henry_III&#45;&gt;A_son_of_John_Durvassal</title>
<path style="fill:none;stroke:black;" d="M1084,-144C1071,-135 1054,-124 1040,-114"/>
<polygon style="fill:black;stroke:black;" points="1041.26,-110.635 1031,-108 1037.38,-116.459 1041.26,-110.635"/>
<text text-anchor="middle" x="1074" y="-139.4" style="font-family:Times New Roman;font-size:9.00;">hostageHolder</text>
</g>
<!-- A_son_of_John_Durvassal&#45;&gt;John_Durvassal -->
<g id="edge118" class="edge"><title>A_son_of_John_Durvassal&#45;&gt;John_Durvassal</title>
<path style="fill:none;stroke:black;" d="M1010,-108C1011,-116 1011,-125 1011,-134"/>
<polygon style="fill:black;stroke:black;" points="1007.51,-133.701 1010,-144 1014.48,-134.398 1007.51,-133.701"/>
<text text-anchor="middle" x="1015" y="-114.4" style="font-family:Times New Roman;font-size:9.00;">childOf</text>
</g>
<!-- Thomas_earl_of_Warwick_d_1242 -->
<g id="node122" class="node"><title>Thomas_earl_of_Warwick_d_1242</title>
<polygon style="fill:#cc99cc;stroke:black;" points="933,-180 715,-180 715,-144 933,-144 933,-180"/>
<text text-anchor="middle" x="824" y="-157.9" style="font-family:Times New Roman;font-size:14.00;">Thomas_earl_of_Warwick_d_1242</text>
</g>
<!-- Thomas_earl_of_Warwick_d_1242&#45;&gt;Warwick_Castle -->
<g id="edge127" class="edge"><title>Thomas_earl_of_Warwick_d_1242&#45;&gt;Warwick_Castle</title>
<path style="fill:none;stroke:black;" d="M824,-144C824,-136 824,-127 824,-118"/>
<polygon style="fill:black;stroke:black;" points="827.5,-118 824,-108 820.5,-118 827.5,-118"/>
<text text-anchor="middle" x="820" y="-132.4" style="font-family:Times New Roman;font-size:9.00;">pledgeGiver</text>
</g>
</g>
</svg>
