<?xml version="1.0" encoding="UTF-8" standalone="no"?>
<!DOCTYPE svg PUBLIC "-//W3C//DTD SVG 1.0//EN"
 "http://www.w3.org/TR/2001/REC-SVG-20010904/DTD/svg10.dtd" [
 <!ATTLIST svg xmlns:xlink CDATA #FIXED "http://www.w3.org/1999/xlink">
]>
<!-- Generated by Graphviz version 2.20.2 (Tue Jul 29 16:40:41 UTC 2008)
     For user: (jjc) JJon -->
<!-- Title: testgraph Pages: 1 -->
<svg width="1457pt" height="472pt"
 viewBox="0.00 0.00 1457.00 472.00" xmlns="http://www.w3.org/2000/svg" xmlns:xlink="http://www.w3.org/1999/xlink">
<g id="graph0" class="graph" transform="scale(1 1) rotate(0) translate(4 468)">
<title>testgraph</title>
<polygon style="fill:white;stroke:white;" points="-4,4 -4,-468 1453,-468 1453,4 -4,4"/>
<!-- John_Durvassal -->
<g id="node1" class="node"><title>John_Durvassal</title>
<polygon style="fill:none;stroke:black;" points="106,-167.5 4.9738e-14,-167.5 0,-142.5 106,-142.5 106,-167.5"/>
<text text-anchor="middle" x="53" y="-150.9" style="font-family:Times New Roman;font-size:14.00;">John_Durvassal</text>
</g>
<!-- A_son_of_John_Durvassal -->
<g id="node2" class="node"><title>A_son_of_John_Durvassal</title>
<polygon style="fill:#cc99cc;stroke:black;" points="262,-93.5 94,-93.5 94,-68.5 262,-68.5 262,-93.5"/>
<text text-anchor="middle" x="178" y="-76.9" style="font-family:Times New Roman;font-size:14.00;">A_son_of_John_Durvassal</text>
</g>
<!-- A_son_of_John_Durvassal&#45;&gt;John_Durvassal -->
<g id="edge32" class="edge"><title>A_son_of_John_Durvassal&#45;&gt;John_Durvassal</title>
<path style="fill:none;stroke:black;" d="M132,-94C119,-98 105,-104 93,-112 84,-118 76,-126 69,-134"/>
<polygon style="fill:black;stroke:black;" points="65.9511,-132.169 62,-142 71.2191,-136.779 65.9511,-132.169"/>
<text text-anchor="middle" x="114" y="-115.4" style="font-family:Times New Roman;font-size:9.00;">childOf</text>
</g>
<!-- hostage_exchange_1233a -->
<g id="node3" class="node"><title>hostage_exchange_1233a</title>
<polygon style="fill:#cccc99;stroke:black;" points="1333,-90.5 1279,-90.5 1279,-71.5 1333,-71.5 1333,-90.5"/>
<text text-anchor="middle" x="1306" y="-78.4" style="font-family:Times New Roman;font-size:9.00;">exchange</text>
</g>
<!-- Henry_de_Brompton -->
<g id="node6" class="node"><title>Henry_de_Brompton</title>
<polygon style="fill:#cc99cc;stroke:black;" points="1375,-167.5 1237,-167.5 1237,-142.5 1375,-142.5 1375,-167.5"/>
<text text-anchor="middle" x="1306" y="-150.9" style="font-family:Times New Roman;font-size:14.00;">Henry_de_Brompton</text>
</g>
<!-- hostage_exchange_1233a&#45;&gt;Henry_de_Brompton -->
<g id="edge14" class="edge"><title>hostage_exchange_1233a&#45;&gt;Henry_de_Brompton</title>
<path style="fill:none;stroke:black;" d="M1306,-91C1306,-101 1306,-118 1306,-132"/>
<polygon style="fill:black;stroke:black;" points="1302.5,-132 1306,-142 1309.5,-132 1302.5,-132"/>
<text text-anchor="middle" x="1320" y="-115.4" style="font-family:Times New Roman;font-size:9.00;">hostage</text>
</g>
<!-- William_de_Stutevill -->
<g id="node11" class="node"><title>William_de_Stutevill</title>
<polygon style="fill:none;stroke:black;" points="1213,-167.5 1079,-167.5 1079,-142.5 1213,-142.5 1213,-167.5"/>
<text text-anchor="middle" x="1146" y="-150.9" style="font-family:Times New Roman;font-size:14.00;">William_de_Stutevill</text>
</g>
<!-- hostage_exchange_1233a&#45;&gt;William_de_Stutevill -->
<g id="edge16" class="edge"><title>hostage_exchange_1233a&#45;&gt;William_de_Stutevill</title>
<path style="fill:none;stroke:black;" d="M1285,-91C1260,-103 1215,-124 1182,-138"/>
<polygon style="fill:black;stroke:black;" points="1180.72,-134.74 1173,-142 1183.56,-141.137 1180.72,-134.74"/>
<text text-anchor="middle" x="1266" y="-115.4" style="font-family:Times New Roman;font-size:9.00;">hostageHolder</text>
</g>
<!-- Mortimer_Ralph_d_1247 -->
<g id="node15" class="node"><title>Mortimer_Ralph_d_1247</title>
<polygon style="fill:none;stroke:black;" points="1405,-315.5 1243,-315.5 1243,-290.5 1405,-290.5 1405,-315.5"/>
<text text-anchor="middle" x="1324" y="-298.9" style="font-family:Times New Roman;font-size:14.00;">Mortimer_Ralph_d_1247</text>
</g>
<!-- hostage_exchange_1233a&#45;&gt;Mortimer_Ralph_d_1247 -->
<g id="edge12" class="edge"><title>hostage_exchange_1233a&#45;&gt;Mortimer_Ralph_d_1247</title>
<path style="fill:none;stroke:black;" d="M1326,-91C1345,-101 1371,-118 1384,-142 1404,-182 1404,-202 1387,-242 1380,-259 1365,-274 1352,-284"/>
<polygon style="fill:black;stroke:black;" points="1349.9,-281.2 1344,-290 1354.1,-286.8 1349.9,-281.2"/>
<text text-anchor="middle" x="1424" y="-189.4" style="font-family:Times New Roman;font-size:9.00;">hostageGiver</text>
</g>
<!-- Philip_fitz_William_Sampson -->
<g id="node4" class="node"><title>Philip_fitz_William_Sampson</title>
<polygon style="fill:#cc99cc;stroke:black;" points="812,-167.5 628,-167.5 628,-142.5 812,-142.5 812,-167.5"/>
<text text-anchor="middle" x="720" y="-150.9" style="font-family:Times New Roman;font-size:14.00;">Philip_fitz_William_Sampson</text>
</g>
<!-- Sampson_William -->
<g id="node12" class="node"><title>Sampson_William</title>
<polygon style="fill:none;stroke:black;" points="780,-241.5 660,-241.5 660,-216.5 780,-216.5 780,-241.5"/>
<text text-anchor="middle" x="720" y="-224.9" style="font-family:Times New Roman;font-size:14.00;">Sampson_William</text>
</g>
<!-- Philip_fitz_William_Sampson&#45;&gt;Sampson_William -->
<g id="edge28" class="edge"><title>Philip_fitz_William_Sampson&#45;&gt;Sampson_William</title>
<path style="fill:none;stroke:black;" d="M704,-168C699,-173 694,-179 691,-186 688,-194 691,-201 696,-208"/>
<polygon style="fill:black;stroke:black;" points="693.781,-210.779 703,-216 699.049,-206.169 693.781,-210.779"/>
<text text-anchor="middle" x="709" y="-189.4" style="font-family:Times New Roman;font-size:9.00;">childOf</text>
</g>
<!-- Mortimer_Roger_d_1214 -->
<g id="node5" class="node"><title>Mortimer_Roger_d_1214</title>
<polygon style="fill:none;stroke:black;" points="1351,-389.5 1185,-389.5 1185,-364.5 1351,-364.5 1351,-389.5"/>
<text text-anchor="middle" x="1268" y="-372.9" style="font-family:Times New Roman;font-size:14.00;">Mortimer_Roger_d_1214</text>
</g>
<!-- Ferrières_Isabella_de -->
<g id="node10" class="node"><title>Ferrières_Isabella_de</title>
<polygon style="fill:none;stroke:black;" points="1395,-463.5 1257,-463.5 1257,-438.5 1395,-438.5 1395,-463.5"/>
<text text-anchor="middle" x="1326" y="-446.9" style="font-family:Times New Roman;font-size:14.00;">Ferrières_Isabella_de</text>
</g>
<!-- Mortimer_Roger_d_1214&#45;&gt;Ferrières_Isabella_de -->
<g id="edge36" class="edge"><title>Mortimer_Roger_d_1214&#45;&gt;Ferrières_Isabella_de</title>
<path style="fill:none;stroke:black;" d="M1285,-390C1291,-395 1298,-401 1304,-408 1309,-414 1313,-422 1317,-429"/>
<polygon style="fill:black;stroke:black;" points="1313.74,-430.283 1321,-438 1320.14,-427.44 1313.74,-430.283"/>
<text text-anchor="middle" x="1327" y="-411.4" style="font-family:Times New Roman;font-size:9.00;">spouseOf</text>
</g>
<!-- Mortimer_Roger_d_1214&#45;&gt;Mortimer_Ralph_d_1247 -->
<g id="edge34" class="edge"><title>Mortimer_Roger_d_1214&#45;&gt;Mortimer_Ralph_d_1247</title>
<path style="fill:none;stroke:black;" d="M1265,-364C1264,-355 1264,-343 1269,-334 1272,-329 1276,-325 1280,-321"/>
<polygon style="fill:black;stroke:black;" points="1281.96,-323.916 1289,-316 1278.56,-317.797 1281.96,-323.916"/>
<text text-anchor="middle" x="1285" y="-337.4" style="font-family:Times New Roman;font-size:9.00;">parentOf</text>
</g>
<!-- Brompton_Brian_de_1215&#45;1277 -->
<g id="node8" class="node"><title>Brompton_Brian_de_1215&#45;1277</title>
<polygon style="fill:none;stroke:black;" points="1378,-241.5 1174,-241.5 1174,-216.5 1378,-216.5 1378,-241.5"/>
<text text-anchor="middle" x="1276" y="-224.9" style="font-family:Times New Roman;font-size:14.00;">Brompton_Brian_de_1215&#45;1277</text>
</g>
<!-- Henry_de_Brompton&#45;&gt;Brompton_Brian_de_1215&#45;1277 -->
<g id="edge50" class="edge"><title>Henry_de_Brompton&#45;&gt;Brompton_Brian_de_1215&#45;1277</title>
<path style="fill:none;stroke:black;" d="M1282,-168C1276,-173 1269,-179 1266,-186 1263,-193 1263,-200 1265,-206"/>
<polygon style="fill:black;stroke:black;" points="1261.77,-207.427 1268,-216 1268.48,-205.416 1261.77,-207.427"/>
<text text-anchor="middle" x="1280" y="-189.4" style="font-family:Times New Roman;font-size:9.00;">childOf</text>
</g>
<!-- hostage_exchange_1233j -->
<g id="node7" class="node"><title>hostage_exchange_1233j</title>
<polygon style="fill:#cccc99;stroke:black;" points="205,-19.5 151,-19.5 151,-0.5 205,-0.5 205,-19.5"/>
<text text-anchor="middle" x="178" y="-7.4" style="font-family:Times New Roman;font-size:9.00;">exchange</text>
</g>
<!-- hostage_exchange_1233j&#45;&gt;John_Durvassal -->
<g id="edge52" class="edge"><title>hostage_exchange_1233j&#45;&gt;John_Durvassal</title>
<path style="fill:none;stroke:black;" d="M151,-12C117,-17 61,-30 35,-68 22,-88 31,-114 40,-133"/>
<polygon style="fill:black;stroke:black;" points="37.084,-134.958 45,-142 43.2031,-131.559 37.084,-134.958"/>
<text text-anchor="middle" x="63" y="-78.4" style="font-family:Times New Roman;font-size:9.00;">hostageGiver</text>
</g>
<!-- hostage_exchange_1233j&#45;&gt;A_son_of_John_Durvassal -->
<g id="edge54" class="edge"><title>hostage_exchange_1233j&#45;&gt;A_son_of_John_Durvassal</title>
<path style="fill:none;stroke:black;" d="M178,-20C178,-29 178,-45 178,-58"/>
<polygon style="fill:black;stroke:black;" points="174.5,-58 178,-68 181.5,-58 174.5,-58"/>
<text text-anchor="middle" x="193" y="-41.4" style="font-family:Times New Roman;font-size:9.00;">hostage</text>
</g>
<!-- Henry_III -->
<g id="node9" class="node"><title>Henry_III</title>
<polygon style="fill:none;stroke:black;" points="352,-93.5 280,-93.5 280,-68.5 352,-68.5 352,-93.5"/>
<text text-anchor="middle" x="316" y="-76.9" style="font-family:Times New Roman;font-size:14.00;">Henry_III</text>
</g>
<!-- hostage_exchange_1233j&#45;&gt;Henry_III -->
<g id="edge56" class="edge"><title>hostage_exchange_1233j&#45;&gt;Henry_III</title>
<path style="fill:none;stroke:black;" d="M197,-20C218,-31 255,-49 282,-63"/>
<polygon style="fill:black;stroke:black;" points="280.559,-66.2031 291,-68 283.958,-60.084 280.559,-66.2031"/>
<text text-anchor="middle" x="279" y="-41.4" style="font-family:Times New Roman;font-size:9.00;">hostageHolder</text>
</g>
<!-- Brompton_Brian_de_1215&#45;1277&#45;&gt;Henry_de_Brompton -->
<g id="edge58" class="edge"><title>Brompton_Brian_de_1215&#45;1277&#45;&gt;Henry_de_Brompton</title>
<path style="fill:none;stroke:black;" d="M1285,-216C1288,-211 1292,-204 1295,-198 1298,-191 1300,-184 1302,-178"/>
<polygon style="fill:black;stroke:black;" points="1305.47,-178.492 1304,-168 1298.61,-177.119 1305.47,-178.492"/>
<text text-anchor="middle" x="1314" y="-189.4" style="font-family:Times New Roman;font-size:9.00;">parentOf</text>
</g>
<!-- Brompton_Brian_de_1215&#45;1277&#45;&gt;Mortimer_Ralph_d_1247 -->
<g id="edge60" class="edge"><title>Brompton_Brian_de_1215&#45;1277&#45;&gt;Mortimer_Ralph_d_1247</title>
<path style="fill:none;stroke:black;" d="M1287,-242C1292,-247 1298,-254 1302,-260 1306,-267 1310,-274 1313,-281"/>
<polygon style="fill:black;stroke:black;" points="1310.08,-282.958 1318,-290 1316.2,-279.559 1310.08,-282.958"/>
<text text-anchor="middle" x="1320" y="-263.4" style="font-family:Times New Roman;font-size:9.00;">serves</text>
</g>
<!-- Ferrières_Isabella_de&#45;&gt;Mortimer_Roger_d_1214 -->
<g id="edge18" class="edge"><title>Ferrières_Isabella_de&#45;&gt;Mortimer_Roger_d_1214</title>
<path style="fill:none;stroke:black;" d="M1289,-438C1281,-434 1274,-428 1269,-420 1265,-414 1264,-407 1264,-400"/>
<polygon style="fill:black;stroke:black;" points="1267.49,-400.299 1265,-390 1260.52,-399.602 1267.49,-400.299"/>
<text text-anchor="middle" x="1286" y="-411.4" style="font-family:Times New Roman;font-size:9.00;">spouseOf</text>
</g>
<!-- Stutevill_Osmund_de -->
<g id="node17" class="node"><title>Stutevill_Osmund_de</title>
<polygon style="fill:#cc99cc;stroke:black;" points="1156,-241.5 1018,-241.5 1018,-216.5 1156,-216.5 1156,-241.5"/>
<text text-anchor="middle" x="1087" y="-224.9" style="font-family:Times New Roman;font-size:14.00;">Stutevill_Osmund_de</text>
</g>
<!-- William_de_Stutevill&#45;&gt;Stutevill_Osmund_de -->
<g id="edge30" class="edge"><title>William_de_Stutevill&#45;&gt;Stutevill_Osmund_de</title>
<path style="fill:none;stroke:black;" d="M1107,-168C1098,-172 1091,-178 1086,-186 1083,-192 1082,-199 1082,-206"/>
<polygon style="fill:black;stroke:black;" points="1078.52,-206.398 1083,-216 1085.49,-205.701 1078.52,-206.398"/>
<text text-anchor="middle" x="1102" y="-189.4" style="font-family:Times New Roman;font-size:9.00;">parentOf</text>
</g>
<!-- Sampson_William&#45;&gt;Philip_fitz_William_Sampson -->
<g id="edge2" class="edge"><title>Sampson_William&#45;&gt;Philip_fitz_William_Sampson</title>
<path style="fill:none;stroke:black;" d="M722,-216C723,-211 724,-204 724,-198 725,-192 724,-185 724,-178"/>
<polygon style="fill:black;stroke:black;" points="727.478,-177.602 723,-168 720.512,-178.299 727.478,-177.602"/>
<text text-anchor="middle" x="743" y="-189.4" style="font-family:Times New Roman;font-size:9.00;">parentOf</text>
</g>
<!-- Warwick_Castle -->
<g id="node13" class="node"><title>Warwick_Castle</title>
<polygon style="fill:none;stroke:black;" points="470,-167.5 360,-167.5 360,-142.5 470,-142.5 470,-167.5"/>
<text text-anchor="middle" x="415" y="-150.9" style="font-family:Times New Roman;font-size:14.00;">Warwick_Castle</text>
</g>
<!-- John_de_Lodbroc -->
<g id="node14" class="node"><title>John_de_Lodbroc</title>
<polygon style="fill:none;stroke:black;" points="610,-167.5 488,-167.5 488,-142.5 610,-142.5 610,-167.5"/>
<text text-anchor="middle" x="549" y="-150.9" style="font-family:Times New Roman;font-size:14.00;">John_de_Lodbroc</text>
</g>
<!-- Mortimer_Ralph_d_1247&#45;&gt;Mortimer_Roger_d_1214 -->
<g id="edge44" class="edge"><title>Mortimer_Ralph_d_1247&#45;&gt;Mortimer_Roger_d_1214</title>
<path style="fill:none;stroke:black;" d="M1319,-316C1315,-325 1309,-337 1302,-346 1299,-350 1295,-354 1292,-357"/>
<polygon style="fill:black;stroke:black;" points="1289.22,-354.781 1284,-364 1293.83,-360.049 1289.22,-354.781"/>
<text text-anchor="middle" x="1323" y="-337.4" style="font-family:Times New Roman;font-size:9.00;">childOf</text>
</g>
<!-- Mortimer_Ralph_d_1247&#45;&gt;Brompton_Brian_de_1215&#45;1277 -->
<g id="edge48" class="edge"><title>Mortimer_Ralph_d_1247&#45;&gt;Brompton_Brian_de_1215&#45;1277</title>
<path style="fill:none;stroke:black;" d="M1295,-290C1288,-286 1281,-280 1277,-272 1273,-266 1272,-259 1272,-252"/>
<polygon style="fill:black;stroke:black;" points="1275.49,-252.299 1273,-242 1268.52,-251.602 1275.49,-252.299"/>
<text text-anchor="middle" x="1289" y="-263.4" style="font-family:Times New Roman;font-size:9.00;">lordOf</text>
</g>
<!-- Mortimer_Ralph_d_1247&#45;&gt;Ferrières_Isabella_de -->
<g id="edge46" class="edge"><title>Mortimer_Ralph_d_1247&#45;&gt;Ferrières_Isabella_de</title>
<path style="fill:none;stroke:black;" d="M1334,-316C1343,-328 1355,-346 1360,-364 1366,-389 1361,-398 1349,-420 1347,-423 1345,-427 1343,-430"/>
<polygon style="fill:black;stroke:black;" points="1340.2,-427.9 1337,-438 1345.8,-432.1 1340.2,-427.9"/>
<text text-anchor="middle" x="1375" y="-374.4" style="font-family:Times New Roman;font-size:9.00;">childOf</text>
</g>
<!-- Segrave_Stephen_d_1241 -->
<g id="node16" class="node"><title>Segrave_Stephen_d_1241</title>
<polygon style="fill:none;stroke:black;" points="996,-167.5 830,-167.5 830,-142.5 996,-142.5 996,-167.5"/>
<text text-anchor="middle" x="913" y="-150.9" style="font-family:Times New Roman;font-size:14.00;">Segrave_Stephen_d_1241</text>
</g>
<!-- Stutevill_Osmund_de&#45;&gt;William_de_Stutevill -->
<g id="edge10" class="edge"><title>Stutevill_Osmund_de&#45;&gt;William_de_Stutevill</title>
<path style="fill:none;stroke:black;" d="M1104,-216C1110,-211 1117,-205 1123,-198 1128,-192 1132,-184 1136,-177"/>
<polygon style="fill:black;stroke:black;" points="1139.2,-178.441 1141,-168 1133.08,-175.042 1139.2,-178.441"/>
<text text-anchor="middle" x="1144" y="-189.4" style="font-family:Times New Roman;font-size:9.00;">childOf</text>
</g>
<!-- hostage_exchange_1233k -->
<g id="node18" class="node"><title>hostage_exchange_1233k</title>
<polygon style="fill:#cccc99;stroke:black;" points="747,-90.5 693,-90.5 693,-71.5 747,-71.5 747,-90.5"/>
<text text-anchor="middle" x="720" y="-78.4" style="font-family:Times New Roman;font-size:9.00;">exchange</text>
</g>
<!-- hostage_exchange_1233k&#45;&gt;Philip_fitz_William_Sampson -->
<g id="edge6" class="edge"><title>hostage_exchange_1233k&#45;&gt;Philip_fitz_William_Sampson</title>
<path style="fill:none;stroke:black;" d="M720,-91C720,-101 720,-118 720,-132"/>
<polygon style="fill:black;stroke:black;" points="716.5,-132 720,-142 723.5,-132 716.5,-132"/>
<text text-anchor="middle" x="735" y="-115.4" style="font-family:Times New Roman;font-size:9.00;">hostage</text>
</g>
<!-- hostage_exchange_1233k&#45;&gt;John_de_Lodbroc -->
<g id="edge4" class="edge"><title>hostage_exchange_1233k&#45;&gt;John_de_Lodbroc</title>
<path style="fill:none;stroke:black;" d="M698,-91C671,-103 622,-124 588,-138"/>
<polygon style="fill:black;stroke:black;" points="585.985,-135.036 578,-142 588.585,-141.536 585.985,-135.036"/>
<text text-anchor="middle" x="676" y="-115.4" style="font-family:Times New Roman;font-size:9.00;">hostageGiver</text>
</g>
<!-- hostage_exchange_1233k&#45;&gt;Segrave_Stephen_d_1241 -->
<g id="edge8" class="edge"><title>hostage_exchange_1233k&#45;&gt;Segrave_Stephen_d_1241</title>
<path style="fill:none;stroke:black;" d="M745,-91C776,-103 832,-124 870,-138"/>
<polygon style="fill:black;stroke:black;" points="869.415,-141.536 880,-142 872.015,-135.036 869.415,-141.536"/>
<text text-anchor="middle" x="856" y="-115.4" style="font-family:Times New Roman;font-size:9.00;">hostageHolder</text>
</g>
<!-- Thomas_earl_of_Warwick_d_1242 -->
<g id="node19" class="node"><title>Thomas_earl_of_Warwick_d_1242</title>
<polygon style="fill:none;stroke:black;" points="342,-167.5 124,-167.5 124,-142.5 342,-142.5 342,-167.5"/>
<text text-anchor="middle" x="233" y="-150.9" style="font-family:Times New Roman;font-size:14.00;">Thomas_earl_of_Warwick_d_1242</text>
</g>
<!-- hostage_exchange_1233i -->
<g id="node20" class="node"><title>hostage_exchange_1233i</title>
<polygon style="fill:#cccc99;stroke:black;" points="436,-90.5 382,-90.5 382,-71.5 436,-71.5 436,-90.5"/>
<text text-anchor="middle" x="409" y="-78.4" style="font-family:Times New Roman;font-size:9.00;">exchange</text>
</g>
<!-- hostage_exchange_1233i&#45;&gt;John_Durvassal -->
<g id="edge26" class="edge"><title>hostage_exchange_1233i&#45;&gt;John_Durvassal</title>
<path style="fill:none;stroke:black;" d="M382,-89C375,-91 368,-93 361,-94 314,-105 301,-103 253,-112 207,-121 155,-132 116,-141"/>
<polygon style="fill:black;stroke:black;" points="115.119,-137.607 106,-143 116.492,-144.471 115.119,-137.607"/>
<text text-anchor="middle" x="296" y="-115.4" style="font-family:Times New Roman;font-size:9.00;">custodyHolder</text>
</g>
<!-- hostage_exchange_1233i&#45;&gt;Warwick_Castle -->
<g id="edge22" class="edge"><title>hostage_exchange_1233i&#45;&gt;Warwick_Castle</title>
<path style="fill:none;stroke:black;" d="M410,-91C411,-101 412,-118 413,-132"/>
<polygon style="fill:black;stroke:black;" points="409.522,-132.398 414,-142 416.488,-131.701 409.522,-132.398"/>
<text text-anchor="middle" x="427" y="-115.4" style="font-family:Times New Roman;font-size:9.00;">pledge</text>
</g>
<!-- hostage_exchange_1233i&#45;&gt;John_de_Lodbroc -->
<g id="edge24" class="edge"><title>hostage_exchange_1233i&#45;&gt;John_de_Lodbroc</title>
<path style="fill:none;stroke:black;" d="M427,-91C449,-103 488,-123 516,-137"/>
<polygon style="fill:black;stroke:black;" points="514.559,-140.203 525,-142 517.958,-134.084 514.559,-140.203"/>
<text text-anchor="middle" x="517" y="-115.4" style="font-family:Times New Roman;font-size:9.00;">custodyHolder</text>
</g>
<!-- hostage_exchange_1233i&#45;&gt;Thomas_earl_of_Warwick_d_1242 -->
<g id="edge20" class="edge"><title>hostage_exchange_1233i&#45;&gt;Thomas_earl_of_Warwick_d_1242</title>
<path style="fill:none;stroke:black;" d="M386,-91C358,-103 308,-124 272,-138"/>
<polygon style="fill:black;stroke:black;" points="270.717,-134.74 263,-142 273.56,-141.137 270.717,-134.74"/>
<text text-anchor="middle" x="362" y="-115.4" style="font-family:Times New Roman;font-size:9.00;">pledgeGiver</text>
</g>
<!-- hostage_exchange_1233b -->
<g id="node21" class="node"><title>hostage_exchange_1233b</title>
<polygon style="fill:#cccc99;stroke:black;" points="1059,-90.5 1005,-90.5 1005,-71.5 1059,-71.5 1059,-90.5"/>
<text text-anchor="middle" x="1032" y="-78.4" style="font-family:Times New Roman;font-size:9.00;">exchange</text>
</g>
<!-- hostage_exchange_1233b&#45;&gt;William_de_Stutevill -->
<g id="edge38" class="edge"><title>hostage_exchange_1233b&#45;&gt;William_de_Stutevill</title>
<path style="fill:none;stroke:black;" d="M1047,-91C1065,-102 1096,-123 1118,-137"/>
<polygon style="fill:black;stroke:black;" points="1116.56,-140.203 1127,-142 1119.96,-134.084 1116.56,-140.203"/>
<text text-anchor="middle" x="1119" y="-115.4" style="font-family:Times New Roman;font-size:9.00;">hostageGiver</text>
</g>
<!-- hostage_exchange_1233b&#45;&gt;Segrave_Stephen_d_1241 -->
<g id="edge42" class="edge"><title>hostage_exchange_1233b&#45;&gt;Segrave_Stephen_d_1241</title>
<path style="fill:none;stroke:black;" d="M1008,-91C994,-96 978,-104 964,-112 953,-119 943,-128 934,-135"/>
<polygon style="fill:black;stroke:black;" points="931.221,-132.781 926,-142 935.831,-138.049 931.221,-132.781"/>
<text text-anchor="middle" x="997" y="-115.4" style="font-family:Times New Roman;font-size:9.00;">hostageHolder</text>
</g>
<!-- hostage_exchange_1233b&#45;&gt;Stutevill_Osmund_de -->
<g id="edge40" class="edge"><title>hostage_exchange_1233b&#45;&gt;Stutevill_Osmund_de</title>
<path style="fill:none;stroke:black;" d="M1031,-91C1030,-107 1030,-142 1041,-168 1047,-183 1057,-198 1067,-208"/>
<polygon style="fill:black;stroke:black;" points="1064.78,-210.779 1074,-216 1070.05,-206.169 1064.78,-210.779"/>
<text text-anchor="middle" x="1055" y="-152.4" style="font-family:Times New Roman;font-size:9.00;">hostage</text>
</g>
</g>
</svg>
