<?xml version="1.0" encoding="UTF-8" standalone="no"?>
<!DOCTYPE svg PUBLIC "-//W3C//DTD SVG 1.0//EN"
 "http://www.w3.org/TR/2001/REC-SVG-20010904/DTD/svg10.dtd" [
 <!ATTLIST svg xmlns:xlink CDATA #FIXED "http://www.w3.org/1999/xlink">
]>
<!-- Generated by Graphviz version 2.20.2 (Tue Jul 29 16:40:41 UTC 2008)
     For user: (jjc) JJon -->
<!-- Title: testgraph Pages: 1 -->
<svg width="982pt" height="968pt"
 viewBox="0.00 0.00 982.00 968.00" xmlns="http://www.w3.org/2000/svg" xmlns:xlink="http://www.w3.org/1999/xlink">
<g id="graph0" class="graph" transform="scale(1 1) rotate(0) translate(4 964)">
<title>testgraph</title>
<polygon style="fill:white;stroke:white;" points="-4,4 -4,-964 978,-964 978,4 -4,4"/>
<!-- ns1_Philip_fitz_William_Sampson -->
<g id="node1" class="node"><title>ns1_Philip_fitz_William_Sampson</title>
<polygon style="fill:none;stroke:black;" points="448,-36 236,-36 236,-1.77636e-14 448,-3.55271e-15 448,-36"/>
<text text-anchor="middle" x="342" y="-13.9" style="font-family:Times New Roman;font-size:14.00;">ns1_Philip_fitz_William_Sampson</text>
</g>
<!-- ns1_Sampson_William -->
<g id="node8" class="node"><title>ns1_Sampson_William</title>
<polygon style="fill:none;stroke:black;" points="339,-120 193,-120 193,-84 339,-84 339,-120"/>
<text text-anchor="middle" x="266" y="-97.9" style="font-family:Times New Roman;font-size:14.00;">ns1_Sampson_William</text>
</g>
<!-- ns1_Philip_fitz_William_Sampson&#45;&gt;ns1_Sampson_William -->
<g id="edge22" class="edge"><title>ns1_Philip_fitz_William_Sampson&#45;&gt;ns1_Sampson_William</title>
<path style="fill:none;stroke:black;" d="M275,-36C260,-41 247,-48 242,-54 238,-60 239,-68 243,-75"/>
<polygon style="fill:black;stroke:black;" points="240.084,-76.9582 248,-84 246.203,-73.5586 240.084,-76.9582"/>
<text text-anchor="middle" x="268" y="-57.4" style="font-family:Times New Roman;font-size:9.00;">ns3_childOf</text>
</g>
<!-- ns1_hostage_exchange_1233k -->
<g id="node11" class="node"><title>ns1_hostage_exchange_1233k</title>
<polygon style="fill:#cccc99;stroke:black;" points="472,-204 278,-204 278,-168 472,-168 472,-204"/>
<text text-anchor="middle" x="375" y="-181.9" style="font-family:Times New Roman;font-size:14.00;">ns1_hostage_exchange_1233k</text>
</g>
<!-- ns1_Philip_fitz_William_Sampson&#45;&gt;ns1_hostage_exchange_1233k -->
<g id="edge24" class="edge"><title>ns1_Philip_fitz_William_Sampson&#45;&gt;ns1_hostage_exchange_1233k</title>
<path style="fill:none;stroke:black;" d="M353,-36C356,-42 359,-48 361,-54 372,-89 375,-130 375,-158"/>
<polygon style="fill:black;stroke:black;" points="371.5,-158 375,-168 378.5,-158 371.5,-158"/>
<text text-anchor="middle" x="411" y="-99.4" style="font-family:Times New Roman;font-size:9.00;">ns4_participated_in</text>
</g>
<!-- ns1_John_de_Lodbroc -->
<g id="node2" class="node"><title>ns1_John_de_Lodbroc</title>
<polygon style="fill:none;stroke:black;" points="353,-288 205,-288 205,-252 353,-252 353,-288"/>
<text text-anchor="middle" x="279" y="-265.9" style="font-family:Times New Roman;font-size:14.00;">ns1_John_de_Lodbroc</text>
</g>
<!-- ns1_John_de_Lodbroc&#45;&gt;ns1_hostage_exchange_1233k -->
<g id="edge86" class="edge"><title>ns1_John_de_Lodbroc&#45;&gt;ns1_hostage_exchange_1233k</title>
<path style="fill:none;stroke:black;" d="M297,-252C306,-243 317,-231 328,-222 332,-218 337,-214 342,-210"/>
<polygon style="fill:black;stroke:black;" points="344.1,-212.8 350,-204 339.9,-207.2 344.1,-212.8"/>
<text text-anchor="middle" x="368" y="-225.4" style="font-family:Times New Roman;font-size:9.00;">ns4_participated_in</text>
</g>
<!-- ns1_hostage_exchange_1233i -->
<g id="node13" class="node"><title>ns1_hostage_exchange_1233i</title>
<polygon style="fill:#cccc99;stroke:black;" points="377,-372 187,-372 187,-336 377,-336 377,-372"/>
<text text-anchor="middle" x="282" y="-349.9" style="font-family:Times New Roman;font-size:14.00;">ns1_hostage_exchange_1233i</text>
</g>
<!-- ns1_John_de_Lodbroc&#45;&gt;ns1_hostage_exchange_1233i -->
<g id="edge84" class="edge"><title>ns1_John_de_Lodbroc&#45;&gt;ns1_hostage_exchange_1233i</title>
<path style="fill:none;stroke:black;" d="M267,-288C263,-297 260,-308 262,-318 263,-321 264,-324 266,-327"/>
<polygon style="fill:black;stroke:black;" points="262.74,-328.283 270,-336 269.137,-325.44 262.74,-328.283"/>
<text text-anchor="middle" x="300" y="-309.4" style="font-family:Times New Roman;font-size:9.00;">ns4_participated_in</text>
</g>
<!-- ns1_Mortimer_Roger_d_1214 -->
<g id="node3" class="node"><title>ns1_Mortimer_Roger_d_1214</title>
<polygon style="fill:none;stroke:black;" points="841,-876 649,-876 649,-840 841,-840 841,-876"/>
<text text-anchor="middle" x="745" y="-853.9" style="font-family:Times New Roman;font-size:14.00;">ns1_Mortimer_Roger_d_1214</text>
</g>
<!-- ns1_Mortimer_Ralph_d_1247 -->
<g id="node15" class="node"><title>ns1_Mortimer_Ralph_d_1247</title>
<polygon style="fill:none;stroke:black;" points="911,-792 723,-792 723,-756 911,-756 911,-792"/>
<text text-anchor="middle" x="817" y="-769.9" style="font-family:Times New Roman;font-size:14.00;">ns1_Mortimer_Ralph_d_1247</text>
</g>
<!-- ns1_Mortimer_Roger_d_1214&#45;&gt;ns1_Mortimer_Ralph_d_1247 -->
<g id="edge26" class="edge"><title>ns1_Mortimer_Roger_d_1214&#45;&gt;ns1_Mortimer_Ralph_d_1247</title>
<path style="fill:none;stroke:black;" d="M738,-840C736,-830 735,-819 741,-810 743,-806 747,-802 751,-798"/>
<polygon style="fill:black;stroke:black;" points="753.1,-800.8 759,-792 748.9,-795.2 753.1,-800.8"/>
<text text-anchor="middle" x="766" y="-813.4" style="font-family:Times New Roman;font-size:9.00;">ns3_parentOf</text>
</g>
<!-- ns1_Ferrières_Isabella_de -->
<g id="node16" class="node"><title>ns1_Ferrières_Isabella_de</title>
<polygon style="fill:none;stroke:black;" points="893,-960 727,-960 727,-924 893,-924 893,-960"/>
<text text-anchor="middle" x="810" y="-937.9" style="font-family:Times New Roman;font-size:14.00;">ns1_Ferrières_Isabella_de</text>
</g>
<!-- ns1_Mortimer_Roger_d_1214&#45;&gt;ns1_Ferrières_Isabella_de -->
<g id="edge28" class="edge"><title>ns1_Mortimer_Roger_d_1214&#45;&gt;ns1_Ferrières_Isabella_de</title>
<path style="fill:none;stroke:black;" d="M770,-876C776,-881 783,-888 788,-894 793,-900 797,-907 800,-914"/>
<polygon style="fill:black;stroke:black;" points="797.036,-916.015 804,-924 803.536,-913.415 797.036,-916.015"/>
<text text-anchor="middle" x="820" y="-897.4" style="font-family:Times New Roman;font-size:9.00;">ns3_spouseOf</text>
</g>
<!-- ns1_hostage_exchange_1233b -->
<g id="node4" class="node"><title>ns1_hostage_exchange_1233b</title>
<polygon style="fill:#cccc99;stroke:black;" points="685,-372 493,-372 493,-336 685,-336 685,-372"/>
<text text-anchor="middle" x="589" y="-349.9" style="font-family:Times New Roman;font-size:14.00;">ns1_hostage_exchange_1233b</text>
</g>
<!-- ns1_Segrave_Stephen_d_1241 -->
<g id="node6" class="node"><title>ns1_Segrave_Stephen_d_1241</title>
<polygon style="fill:none;stroke:black;" points="612,-288 418,-288 418,-252 612,-252 612,-288"/>
<text text-anchor="middle" x="515" y="-265.9" style="font-family:Times New Roman;font-size:14.00;">ns1_Segrave_Stephen_d_1241</text>
</g>
<!-- ns1_hostage_exchange_1233b&#45;&gt;ns1_Segrave_Stephen_d_1241 -->
<g id="edge74" class="edge"><title>ns1_hostage_exchange_1233b&#45;&gt;ns1_Segrave_Stephen_d_1241</title>
<path style="fill:none;stroke:black;" d="M583,-336C580,-326 575,-315 568,-306 564,-302 560,-297 555,-294"/>
<polygon style="fill:black;stroke:black;" points="557.1,-291.2 547,-288 552.9,-296.8 557.1,-291.2"/>
<text text-anchor="middle" x="609" y="-309.4" style="font-family:Times New Roman;font-size:9.00;">ns2_hostageHolder</text>
</g>
<!-- ns1_Stutevill_Osmund_de -->
<g id="node7" class="node"><title>ns1_Stutevill_Osmund_de</title>
<polygon style="fill:none;stroke:black;" points="674,-540 508,-540 508,-504 674,-504 674,-540"/>
<text text-anchor="middle" x="591" y="-517.9" style="font-family:Times New Roman;font-size:14.00;">ns1_Stutevill_Osmund_de</text>
</g>
<!-- ns1_hostage_exchange_1233b&#45;&gt;ns1_Stutevill_Osmund_de -->
<g id="edge72" class="edge"><title>ns1_hostage_exchange_1233b&#45;&gt;ns1_Stutevill_Osmund_de</title>
<path style="fill:none;stroke:black;" d="M589,-372C589,-393 588,-427 589,-456 589,-468 590,-482 590,-494"/>
<polygon style="fill:black;stroke:black;" points="586.5,-494 590,-504 593.5,-494 586.5,-494"/>
<text text-anchor="middle" x="612" y="-435.4" style="font-family:Times New Roman;font-size:9.00;">ns2_hostage</text>
</g>
<!-- ns1_William_de_Stutevill -->
<g id="node12" class="node"><title>ns1_William_de_Stutevill</title>
<polygon style="fill:none;stroke:black;" points="806,-456 644,-456 644,-420 806,-420 806,-456"/>
<text text-anchor="middle" x="725" y="-433.9" style="font-family:Times New Roman;font-size:14.00;">ns1_William_de_Stutevill</text>
</g>
<!-- ns1_hostage_exchange_1233b&#45;&gt;ns1_William_de_Stutevill -->
<g id="edge70" class="edge"><title>ns1_hostage_exchange_1233b&#45;&gt;ns1_William_de_Stutevill</title>
<path style="fill:none;stroke:black;" d="M597,-372C603,-382 611,-394 621,-402 627,-407 635,-412 643,-416"/>
<polygon style="fill:black;stroke:black;" points="641.44,-419.137 652,-420 644.283,-412.74 641.44,-419.137"/>
<text text-anchor="middle" x="654" y="-393.4" style="font-family:Times New Roman;font-size:9.00;">ns2_hostageGiver</text>
</g>
<!-- ns1_Thomas_earl_of_Warwick_d_1242 -->
<g id="node5" class="node"><title>ns1_Thomas_earl_of_Warwick_d_1242</title>
<polygon style="fill:none;stroke:black;" points="246,-456 1.27898e-13,-456 0,-420 246,-420 246,-456"/>
<text text-anchor="middle" x="123" y="-433.9" style="font-family:Times New Roman;font-size:14.00;">ns1_Thomas_earl_of_Warwick_d_1242</text>
</g>
<!-- ns1_Thomas_earl_of_Warwick_d_1242&#45;&gt;ns1_hostage_exchange_1233i -->
<g id="edge56" class="edge"><title>ns1_Thomas_earl_of_Warwick_d_1242&#45;&gt;ns1_hostage_exchange_1233i</title>
<path style="fill:none;stroke:black;" d="M153,-420C169,-411 189,-399 206,-390 215,-385 225,-381 234,-376"/>
<polygon style="fill:black;stroke:black;" points="235.283,-379.26 243,-372 232.44,-372.863 235.283,-379.26"/>
<text text-anchor="middle" x="249" y="-393.4" style="font-family:Times New Roman;font-size:9.00;">ns4_participated_in</text>
</g>
<!-- ns1_Segrave_Stephen_d_1241&#45;&gt;ns1_hostage_exchange_1233b -->
<g id="edge76" class="edge"><title>ns1_Segrave_Stephen_d_1241&#45;&gt;ns1_hostage_exchange_1233b</title>
<path style="fill:none;stroke:black;" d="M497,-288C490,-298 485,-309 491,-318 495,-323 503,-328 513,-332"/>
<polygon style="fill:black;stroke:black;" points="511.44,-335.137 522,-336 514.283,-328.74 511.44,-335.137"/>
<text text-anchor="middle" x="528" y="-309.4" style="font-family:Times New Roman;font-size:9.00;">ns4_participated_in</text>
</g>
<!-- ns1_Segrave_Stephen_d_1241&#45;&gt;ns1_hostage_exchange_1233k -->
<g id="edge78" class="edge"><title>ns1_Segrave_Stephen_d_1241&#45;&gt;ns1_hostage_exchange_1233k</title>
<path style="fill:none;stroke:black;" d="M512,-252C509,-242 504,-230 495,-222 489,-217 477,-212 463,-207"/>
<polygon style="fill:black;stroke:black;" points="463.584,-203.521 453,-204 461.573,-210.226 463.584,-203.521"/>
<text text-anchor="middle" x="542" y="-225.4" style="font-family:Times New Roman;font-size:9.00;">ns4_participated_in</text>
</g>
<!-- ns1_Stutevill_Osmund_de&#45;&gt;ns1_hostage_exchange_1233b -->
<g id="edge54" class="edge"><title>ns1_Stutevill_Osmund_de&#45;&gt;ns1_hostage_exchange_1233b</title>
<path style="fill:none;stroke:black;" d="M541,-504C520,-493 497,-478 485,-456 478,-443 478,-435 485,-420 495,-401 514,-387 532,-377"/>
<polygon style="fill:black;stroke:black;" points="533.958,-379.916 541,-372 530.559,-373.797 533.958,-379.916"/>
<text text-anchor="middle" x="525" y="-435.4" style="font-family:Times New Roman;font-size:9.00;">ns4_participated_in</text>
</g>
<!-- ns1_Stutevill_Osmund_de&#45;&gt;ns1_William_de_Stutevill -->
<g id="edge52" class="edge"><title>ns1_Stutevill_Osmund_de&#45;&gt;ns1_William_de_Stutevill</title>
<path style="fill:none;stroke:black;" d="M632,-504C642,-499 654,-493 664,-486 675,-479 686,-471 696,-463"/>
<polygon style="fill:black;stroke:black;" points="698.779,-465.219 704,-456 694.169,-459.951 698.779,-465.219"/>
<text text-anchor="middle" x="705" y="-477.4" style="font-family:Times New Roman;font-size:9.00;">ns3_childOf</text>
</g>
<!-- ns1_Sampson_William&#45;&gt;ns1_Philip_fitz_William_Sampson -->
<g id="edge88" class="edge"><title>ns1_Sampson_William&#45;&gt;ns1_Philip_fitz_William_Sampson</title>
<path style="fill:none;stroke:black;" d="M282,-84C293,-72 307,-57 319,-44"/>
<polygon style="fill:black;stroke:black;" points="322.049,-45.8306 326,-36 316.781,-41.221 322.049,-45.8306"/>
<text text-anchor="middle" x="337" y="-57.4" style="font-family:Times New Roman;font-size:9.00;">ns3_parentOf</text>
</g>
<!-- ns1_Sampson_William&#45;&gt;ns1_hostage_exchange_1233k -->
<g id="edge90" class="edge"><title>ns1_Sampson_William&#45;&gt;ns1_hostage_exchange_1233k</title>
<path style="fill:none;stroke:black;" d="M271,-120C274,-130 280,-142 288,-150 293,-155 299,-159 305,-163"/>
<polygon style="fill:black;stroke:black;" points="303.559,-166.203 314,-168 306.958,-160.084 303.559,-166.203"/>
<text text-anchor="middle" x="325" y="-141.4" style="font-family:Times New Roman;font-size:9.00;">ns4_participated_in</text>
</g>
<!-- ns1_hostage_exchange_1233a -->
<g id="node9" class="node"><title>ns1_hostage_exchange_1233a</title>
<polygon style="fill:#cccc99;stroke:black;" points="914,-540 722,-540 722,-504 914,-504 914,-540"/>
<text text-anchor="middle" x="818" y="-517.9" style="font-family:Times New Roman;font-size:14.00;">ns1_hostage_exchange_1233a</text>
</g>
<!-- ns1_hostage_exchange_1233a&#45;&gt;ns1_William_de_Stutevill -->
<g id="edge62" class="edge"><title>ns1_hostage_exchange_1233a&#45;&gt;ns1_William_de_Stutevill</title>
<path style="fill:none;stroke:black;" d="M773,-504C764,-499 756,-493 749,-486 743,-480 739,-473 735,-465"/>
<polygon style="fill:black;stroke:black;" points="738.26,-463.717 731,-456 731.863,-466.56 738.26,-463.717"/>
<text text-anchor="middle" x="784" y="-477.4" style="font-family:Times New Roman;font-size:9.00;">ns2_hostageHolder</text>
</g>
<!-- ns1_hostage_exchange_1233a&#45;&gt;ns1_Mortimer_Ralph_d_1247 -->
<g id="edge58" class="edge"><title>ns1_hostage_exchange_1233a&#45;&gt;ns1_Mortimer_Ralph_d_1247</title>
<path style="fill:none;stroke:black;" d="M844,-540C876,-564 922,-609 907,-654 894,-692 866,-726 844,-749"/>
<polygon style="fill:black;stroke:black;" points="841.596,-746.454 837,-756 846.546,-751.404 841.596,-746.454"/>
<text text-anchor="middle" x="941" y="-645.4" style="font-family:Times New Roman;font-size:9.00;">ns2_hostageGiver</text>
</g>
<!-- ns1_Henry_de_Brompton -->
<g id="node18" class="node"><title>ns1_Henry_de_Brompton</title>
<polygon style="fill:none;stroke:black;" points="804,-624 638,-624 638,-588 804,-588 804,-624"/>
<text text-anchor="middle" x="721" y="-601.9" style="font-family:Times New Roman;font-size:14.00;">ns1_Henry_de_Brompton</text>
</g>
<!-- ns1_hostage_exchange_1233a&#45;&gt;ns1_Henry_de_Brompton -->
<g id="edge60" class="edge"><title>ns1_hostage_exchange_1233a&#45;&gt;ns1_Henry_de_Brompton</title>
<path style="fill:none;stroke:black;" d="M799,-540C789,-549 776,-561 765,-570 761,-574 756,-577 751,-581"/>
<polygon style="fill:black;stroke:black;" points="748.596,-578.454 744,-588 753.546,-583.404 748.596,-578.454"/>
<text text-anchor="middle" x="803" y="-561.4" style="font-family:Times New Roman;font-size:9.00;">ns2_hostage</text>
</g>
<!-- ns1_hostage_exchange_1233j -->
<g id="node10" class="node"><title>ns1_hostage_exchange_1233j</title>
<polygon style="fill:#cccc99;stroke:black;" points="362,-540 172,-540 172,-504 362,-504 362,-540"/>
<text text-anchor="middle" x="267" y="-517.9" style="font-family:Times New Roman;font-size:14.00;">ns1_hostage_exchange_1233j</text>
</g>
<!-- ns1_Henry_III -->
<g id="node14" class="node"><title>ns1_Henry_III</title>
<polygon style="fill:none;stroke:black;" points="185,-624 85,-624 85,-588 185,-588 185,-624"/>
<text text-anchor="middle" x="135" y="-601.9" style="font-family:Times New Roman;font-size:14.00;">ns1_Henry_III</text>
</g>
<!-- ns1_hostage_exchange_1233j&#45;&gt;ns1_Henry_III -->
<g id="edge68" class="edge"><title>ns1_hostage_exchange_1233j&#45;&gt;ns1_Henry_III</title>
<path style="fill:none;stroke:black;" d="M172,-533C142,-539 115,-547 105,-558 100,-564 102,-572 106,-580"/>
<polygon style="fill:black;stroke:black;" points="103.781,-582.779 113,-588 109.049,-578.169 103.781,-582.779"/>
<text text-anchor="middle" x="144" y="-561.4" style="font-family:Times New Roman;font-size:9.00;">ns2_hostageHolder</text>
</g>
<!-- ns1_A_son_of_John_Durvassal -->
<g id="node19" class="node"><title>ns1_A_son_of_John_Durvassal</title>
<polygon style="fill:none;stroke:black;" points="445,-624 249,-624 249,-588 445,-588 445,-624"/>
<text text-anchor="middle" x="347" y="-601.9" style="font-family:Times New Roman;font-size:14.00;">ns1_A_son_of_John_Durvassal</text>
</g>
<!-- ns1_hostage_exchange_1233j&#45;&gt;ns1_A_son_of_John_Durvassal -->
<g id="edge66" class="edge"><title>ns1_hostage_exchange_1233j&#45;&gt;ns1_A_son_of_John_Durvassal</title>
<path style="fill:none;stroke:black;" d="M267,-540C267,-550 269,-562 275,-570 278,-574 283,-579 288,-582"/>
<polygon style="fill:black;stroke:black;" points="285.9,-584.8 296,-588 290.1,-579.2 285.9,-584.8"/>
<text text-anchor="middle" x="298" y="-561.4" style="font-family:Times New Roman;font-size:9.00;">ns2_hostage</text>
</g>
<!-- ns1_John_Durvassal -->
<g id="node20" class="node"><title>ns1_John_Durvassal</title>
<polygon style="fill:none;stroke:black;" points="413,-456 281,-456 281,-420 413,-420 413,-456"/>
<text text-anchor="middle" x="347" y="-433.9" style="font-family:Times New Roman;font-size:14.00;">ns1_John_Durvassal</text>
</g>
<!-- ns1_hostage_exchange_1233j&#45;&gt;ns1_John_Durvassal -->
<g id="edge64" class="edge"><title>ns1_hostage_exchange_1233j&#45;&gt;ns1_John_Durvassal</title>
<path style="fill:none;stroke:black;" d="M255,-504C251,-494 248,-483 254,-474 257,-469 266,-465 276,-460"/>
<polygon style="fill:black;stroke:black;" points="277.283,-463.26 285,-456 274.44,-456.863 277.283,-463.26"/>
<text text-anchor="middle" x="291" y="-477.4" style="font-family:Times New Roman;font-size:9.00;">ns2_hostageGiver</text>
</g>
<!-- ns1_hostage_exchange_1233k&#45;&gt;ns1_Philip_fitz_William_Sampson -->
<g id="edge34" class="edge"><title>ns1_hostage_exchange_1233k&#45;&gt;ns1_Philip_fitz_William_Sampson</title>
<path style="fill:none;stroke:black;" d="M405,-168C433,-148 469,-116 451,-84 441,-65 422,-51 403,-41"/>
<polygon style="fill:black;stroke:black;" points="404.441,-37.7969 394,-36 401.042,-43.916 404.441,-37.7969"/>
<text text-anchor="middle" x="481" y="-99.4" style="font-family:Times New Roman;font-size:9.00;">ns2_hostage</text>
</g>
<!-- ns1_hostage_exchange_1233k&#45;&gt;ns1_John_de_Lodbroc -->
<g id="edge32" class="edge"><title>ns1_hostage_exchange_1233k&#45;&gt;ns1_John_de_Lodbroc</title>
<path style="fill:none;stroke:black;" d="M278,-203C260,-208 244,-215 238,-222 232,-229 235,-238 242,-245"/>
<polygon style="fill:black;stroke:black;" points="239.454,-247.404 249,-252 244.404,-242.454 239.454,-247.404"/>
<text text-anchor="middle" x="276" y="-225.4" style="font-family:Times New Roman;font-size:9.00;">ns2_hostageGiver</text>
</g>
<!-- ns1_hostage_exchange_1233k&#45;&gt;ns1_Segrave_Stephen_d_1241 -->
<g id="edge36" class="edge"><title>ns1_hostage_exchange_1233k&#45;&gt;ns1_Segrave_Stephen_d_1241</title>
<path style="fill:none;stroke:black;" d="M390,-204C399,-214 411,-226 424,-234 432,-239 441,-244 450,-248"/>
<polygon style="fill:black;stroke:black;" points="448.44,-251.137 459,-252 451.283,-244.74 448.44,-251.137"/>
<text text-anchor="middle" x="460" y="-225.4" style="font-family:Times New Roman;font-size:9.00;">ns2_hostageHolder</text>
</g>
<!-- ns1_William_de_Stutevill&#45;&gt;ns1_hostage_exchange_1233b -->
<g id="edge18" class="edge"><title>ns1_William_de_Stutevill&#45;&gt;ns1_hostage_exchange_1233b</title>
<path style="fill:none;stroke:black;" d="M717,-420C712,-410 705,-398 695,-390 688,-385 680,-380 671,-376"/>
<polygon style="fill:black;stroke:black;" points="672.56,-372.863 662,-372 669.717,-379.26 672.56,-372.863"/>
<text text-anchor="middle" x="740" y="-393.4" style="font-family:Times New Roman;font-size:9.00;">ns4_participated_in</text>
</g>
<!-- ns1_William_de_Stutevill&#45;&gt;ns1_Stutevill_Osmund_de -->
<g id="edge16" class="edge"><title>ns1_William_de_Stutevill&#45;&gt;ns1_Stutevill_Osmund_de</title>
<path style="fill:none;stroke:black;" d="M644,-456C633,-460 623,-466 614,-474 608,-479 603,-487 600,-494"/>
<polygon style="fill:black;stroke:black;" points="596.464,-493.415 596,-504 602.964,-496.015 596.464,-493.415"/>
<text text-anchor="middle" x="639" y="-477.4" style="font-family:Times New Roman;font-size:9.00;">ns3_parentOf</text>
</g>
<!-- ns1_William_de_Stutevill&#45;&gt;ns1_hostage_exchange_1233a -->
<g id="edge20" class="edge"><title>ns1_William_de_Stutevill&#45;&gt;ns1_hostage_exchange_1233a</title>
<path style="fill:none;stroke:black;" d="M794,-456C809,-461 822,-468 827,-474 831,-480 831,-487 830,-494"/>
<polygon style="fill:black;stroke:black;" points="826.521,-493.416 827,-504 833.226,-495.427 826.521,-493.416"/>
<text text-anchor="middle" x="866" y="-477.4" style="font-family:Times New Roman;font-size:9.00;">ns4_participated_in</text>
</g>
<!-- ns1_hostage_exchange_1233i&#45;&gt;ns1_John_de_Lodbroc -->
<g id="edge4" class="edge"><title>ns1_hostage_exchange_1233i&#45;&gt;ns1_John_de_Lodbroc</title>
<path style="fill:none;stroke:black;" d="M326,-336C338,-328 346,-318 339,-306 337,-302 334,-298 330,-295"/>
<polygon style="fill:black;stroke:black;" points="331.831,-291.951 322,-288 327.221,-297.219 331.831,-291.951"/>
<text text-anchor="middle" x="379" y="-309.4" style="font-family:Times New Roman;font-size:9.00;">ns2_custodyHolder</text>
</g>
<!-- ns1_hostage_exchange_1233i&#45;&gt;ns1_Thomas_earl_of_Warwick_d_1242 -->
<g id="edge6" class="edge"><title>ns1_hostage_exchange_1233i&#45;&gt;ns1_Thomas_earl_of_Warwick_d_1242</title>
<path style="fill:none;stroke:black;" d="M187,-363C151,-368 115,-376 104,-390 99,-396 100,-404 103,-411"/>
<polygon style="fill:black;stroke:black;" points="100.084,-412.958 108,-420 106.203,-409.559 100.084,-412.958"/>
<text text-anchor="middle" x="139" y="-393.4" style="font-family:Times New Roman;font-size:9.00;">ns2_pledgeGiver</text>
</g>
<!-- ns1_hostage_exchange_1233i&#45;&gt;ns1_John_Durvassal -->
<g id="edge2" class="edge"><title>ns1_hostage_exchange_1233i&#45;&gt;ns1_John_Durvassal</title>
<path style="fill:none;stroke:black;" d="M280,-372C280,-382 282,-393 287,-402 290,-406 293,-410 297,-413"/>
<polygon style="fill:black;stroke:black;" points="295.169,-416.049 305,-420 299.779,-410.781 295.169,-416.049"/>
<text text-anchor="middle" x="323" y="-393.4" style="font-family:Times New Roman;font-size:9.00;">ns2_custodyHolder</text>
</g>
<!-- ns1_Henry_III&#45;&gt;ns1_hostage_exchange_1233j -->
<g id="edge30" class="edge"><title>ns1_Henry_III&#45;&gt;ns1_hostage_exchange_1233j</title>
<path style="fill:none;stroke:black;" d="M155,-588C166,-579 181,-567 194,-558 201,-554 210,-549 218,-544"/>
<polygon style="fill:black;stroke:black;" points="219.283,-547.26 227,-540 216.44,-540.863 219.283,-547.26"/>
<text text-anchor="middle" x="237" y="-561.4" style="font-family:Times New Roman;font-size:9.00;">ns4_participated_in</text>
</g>
<!-- ns1_Mortimer_Ralph_d_1247&#45;&gt;ns1_Mortimer_Roger_d_1214 -->
<g id="edge10" class="edge"><title>ns1_Mortimer_Ralph_d_1247&#45;&gt;ns1_Mortimer_Roger_d_1214</title>
<path style="fill:none;stroke:black;" d="M811,-792C807,-802 802,-813 795,-822 791,-826 788,-830 784,-834"/>
<polygon style="fill:black;stroke:black;" points="781.9,-831.2 776,-840 786.1,-836.8 781.9,-831.2"/>
<text text-anchor="middle" x="825" y="-813.4" style="font-family:Times New Roman;font-size:9.00;">ns3_childOf</text>
</g>
<!-- ns1_Mortimer_Ralph_d_1247&#45;&gt;ns1_hostage_exchange_1233a -->
<g id="edge12" class="edge"><title>ns1_Mortimer_Ralph_d_1247&#45;&gt;ns1_hostage_exchange_1233a</title>
<path style="fill:none;stroke:black;" d="M821,-756C824,-743 827,-724 829,-708 834,-647 829,-632 830,-570 830,-565 830,-564 830,-558 830,-555 829,-552 828,-550"/>
<polygon style="fill:black;stroke:black;" points="831.226,-548.573 825,-540 824.521,-550.584 831.226,-548.573"/>
<text text-anchor="middle" x="866" y="-645.4" style="font-family:Times New Roman;font-size:9.00;">ns4_participated_in</text>
</g>
<!-- ns1_Mortimer_Ralph_d_1247&#45;&gt;ns1_Ferrières_Isabella_de -->
<g id="edge8" class="edge"><title>ns1_Mortimer_Ralph_d_1247&#45;&gt;ns1_Ferrières_Isabella_de</title>
<path style="fill:none;stroke:black;" d="M839,-792C844,-797 849,-803 852,-810 859,-830 905,-788 851,-906 849,-910 847,-914 844,-917"/>
<polygon style="fill:black;stroke:black;" points="841.596,-914.454 837,-924 846.546,-919.404 841.596,-914.454"/>
<text text-anchor="middle" x="898" y="-855.4" style="font-family:Times New Roman;font-size:9.00;">ns3_childOf</text>
</g>
<!-- ns1_Brompton_Brian_de_1215&#45;1277 -->
<g id="node17" class="node"><title>ns1_Brompton_Brian_de_1215&#45;1277</title>
<polygon style="fill:none;stroke:black;" points="820,-708 590,-708 590,-672 820,-672 820,-708"/>
<text text-anchor="middle" x="705" y="-685.9" style="font-family:Times New Roman;font-size:14.00;">ns1_Brompton_Brian_de_1215&#45;1277</text>
</g>
<!-- ns1_Mortimer_Ralph_d_1247&#45;&gt;ns1_Brompton_Brian_de_1215&#45;1277 -->
<g id="edge14" class="edge"><title>ns1_Mortimer_Ralph_d_1247&#45;&gt;ns1_Brompton_Brian_de_1215&#45;1277</title>
<path style="fill:none;stroke:black;" d="M748,-756C739,-751 730,-745 723,-738 718,-732 713,-725 711,-718"/>
<polygon style="fill:black;stroke:black;" points="714.226,-716.573 708,-708 707.521,-718.584 714.226,-716.573"/>
<text text-anchor="middle" x="744" y="-729.4" style="font-family:Times New Roman;font-size:9.00;">ns2_lordOf</text>
</g>
<!-- ns1_Ferrières_Isabella_de&#45;&gt;ns1_Mortimer_Roger_d_1214 -->
<g id="edge46" class="edge"><title>ns1_Ferrières_Isabella_de&#45;&gt;ns1_Mortimer_Roger_d_1214</title>
<path style="fill:none;stroke:black;" d="M746,-924C739,-919 733,-913 728,-906 724,-900 724,-892 727,-885"/>
<polygon style="fill:black;stroke:black;" points="730.137,-886.56 731,-876 723.74,-883.717 730.137,-886.56"/>
<text text-anchor="middle" x="754" y="-897.4" style="font-family:Times New Roman;font-size:9.00;">ns3_spouseOf</text>
</g>
<!-- ns1_Brompton_Brian_de_1215&#45;1277&#45;&gt;ns1_Mortimer_Ralph_d_1247 -->
<g id="edge82" class="edge"><title>ns1_Brompton_Brian_de_1215&#45;1277&#45;&gt;ns1_Mortimer_Ralph_d_1247</title>
<path style="fill:none;stroke:black;" d="M738,-708C747,-714 756,-720 765,-726 774,-733 783,-741 792,-749"/>
<polygon style="fill:black;stroke:black;" points="789.454,-751.404 799,-756 794.404,-746.454 789.454,-751.404"/>
<text text-anchor="middle" x="797" y="-729.4" style="font-family:Times New Roman;font-size:9.00;">ns2_serves</text>
</g>
<!-- ns1_Brompton_Brian_de_1215&#45;1277&#45;&gt;ns1_Henry_de_Brompton -->
<g id="edge80" class="edge"><title>ns1_Brompton_Brian_de_1215&#45;1277&#45;&gt;ns1_Henry_de_Brompton</title>
<path style="fill:none;stroke:black;" d="M682,-672C674,-663 668,-652 673,-642 675,-638 677,-634 681,-631"/>
<polygon style="fill:black;stroke:black;" points="683.404,-633.546 688,-624 678.454,-628.596 683.404,-633.546"/>
<text text-anchor="middle" x="698" y="-645.4" style="font-family:Times New Roman;font-size:9.00;">ns3_parentOf</text>
</g>
<!-- ns1_Henry_de_Brompton&#45;&gt;ns1_hostage_exchange_1233a -->
<g id="edge50" class="edge"><title>ns1_Henry_de_Brompton&#45;&gt;ns1_hostage_exchange_1233a</title>
<path style="fill:none;stroke:black;" d="M699,-588C690,-579 685,-567 692,-558 696,-552 705,-548 717,-543"/>
<polygon style="fill:black;stroke:black;" points="718.427,-546.226 727,-540 716.416,-539.521 718.427,-546.226"/>
<text text-anchor="middle" x="729" y="-561.4" style="font-family:Times New Roman;font-size:9.00;">ns4_participated_in</text>
</g>
<!-- ns1_Henry_de_Brompton&#45;&gt;ns1_Brompton_Brian_de_1215&#45;1277 -->
<g id="edge48" class="edge"><title>ns1_Henry_de_Brompton&#45;&gt;ns1_Brompton_Brian_de_1215&#45;1277</title>
<path style="fill:none;stroke:black;" d="M726,-624C728,-633 729,-645 727,-654 726,-657 725,-660 724,-663"/>
<polygon style="fill:black;stroke:black;" points="720.797,-661.559 719,-672 726.916,-664.958 720.797,-661.559"/>
<text text-anchor="middle" x="750" y="-645.4" style="font-family:Times New Roman;font-size:9.00;">ns3_childOf</text>
</g>
<!-- ns1_A_son_of_John_Durvassal&#45;&gt;ns1_hostage_exchange_1233j -->
<g id="edge40" class="edge"><title>ns1_A_son_of_John_Durvassal&#45;&gt;ns1_hostage_exchange_1233j</title>
<path style="fill:none;stroke:black;" d="M342,-588C338,-578 333,-567 325,-558 321,-554 316,-549 312,-546"/>
<polygon style="fill:black;stroke:black;" points="313.262,-542.635 303,-540 309.379,-548.459 313.262,-542.635"/>
<text text-anchor="middle" x="371" y="-561.4" style="font-family:Times New Roman;font-size:9.00;">ns4_participated_in</text>
</g>
<!-- ns1_A_son_of_John_Durvassal&#45;&gt;ns1_John_Durvassal -->
<g id="edge38" class="edge"><title>ns1_A_son_of_John_Durvassal&#45;&gt;ns1_John_Durvassal</title>
<path style="fill:none;stroke:black;" d="M394,-588C401,-583 407,-577 411,-570 487,-446 425,-493 413,-474 411,-470 407,-466 403,-462"/>
<polygon style="fill:black;stroke:black;" points="405.1,-459.2 395,-456 400.9,-464.8 405.1,-459.2"/>
<text text-anchor="middle" x="470" y="-519.4" style="font-family:Times New Roman;font-size:9.00;">ns3_childOf</text>
</g>
<!-- ns1_John_Durvassal&#45;&gt;ns1_hostage_exchange_1233j -->
<g id="edge44" class="edge"><title>ns1_John_Durvassal&#45;&gt;ns1_hostage_exchange_1233j</title>
<path style="fill:none;stroke:black;" d="M342,-456C338,-466 333,-478 325,-486 321,-490 317,-494 312,-498"/>
<polygon style="fill:black;stroke:black;" points="309.9,-495.2 304,-504 314.1,-500.8 309.9,-495.2"/>
<text text-anchor="middle" x="373" y="-477.4" style="font-family:Times New Roman;font-size:9.00;">ns4_participated_in</text>
</g>
<!-- ns1_John_Durvassal&#45;&gt;ns1_hostage_exchange_1233i -->
<g id="edge42" class="edge"><title>ns1_John_Durvassal&#45;&gt;ns1_hostage_exchange_1233i</title>
<path style="fill:none;stroke:black;" d="M358,-420C362,-410 365,-399 359,-390 356,-386 352,-382 348,-378"/>
<polygon style="fill:black;stroke:black;" points="350.1,-375.2 340,-372 345.9,-380.8 350.1,-375.2"/>
<text text-anchor="middle" x="401" y="-393.4" style="font-family:Times New Roman;font-size:9.00;">ns4_participated_in</text>
</g>
</g>
</svg>
